o keep_left_bollard
v 8.0000 0.0000 0.0000
v 7.7274 2.0706 0.0000
v 6.9282 4.0000 0.0000
v 5.6569 5.6569 0.0000
v 4.0000 6.9282 0.0000
v 2.0706 7.7274 0.0000
v 0.0000 8.0000 0.0000
v -2.0706 7.7274 0.0000
v -4.0000 6.9282 0.0000
v -5.6569 5.6569 0.0000
v -6.9282 4.0000 0.0000
v -7.7274 2.0706 0.0000
v -8.0000 0.0000 0.0000
v -7.7274 -2.0706 0.0000
v -6.9282 -4.0000 0.0000
v -5.6569 -5.6569 0.0000
v -4.0000 -6.9282 0.0000
v -2.0706 -7.7274 0.0000
v -0.0000 -8.0000 0.0000
v 2.0706 -7.7274 0.0000
v 4.0000 -6.9282 0.0000
v 5.6569 -5.6569 0.0000
v 6.9282 -4.0000 0.0000
v 7.7274 -2.0706 0.0000
v 8.0000 0.0000 58.0000
v 7.7274 2.0706 58.0000
v 6.9282 4.0000 58.0000
v 5.6569 5.6569 58.0000
v 4.0000 6.9282 58.0000
v 2.0706 7.7274 58.0000
v 0.0000 8.0000 58.0000
v -2.0706 7.7274 58.0000
v -4.0000 6.9282 58.0000
v -5.6569 5.6569 58.0000
v -6.9282 4.0000 58.0000
v -7.7274 2.0706 58.0000
v -8.0000 0.0000 58.0000
v -7.7274 -2.0706 58.0000
v -6.9282 -4.0000 58.0000
v -5.6569 -5.6569 58.0000
v -4.0000 -6.9282 58.0000
v -2.0706 -7.7274 58.0000
v -0.0000 -8.0000 58.0000
v 2.0706 -7.7274 58.0000
v 4.0000 -6.9282 58.0000
v 5.6569 -5.6569 58.0000
v 6.9282 -4.0000 58.0000
v 7.7274 -2.0706 58.0000
f 1 2 26 25
f 2 3 27 26
f 3 4 28 27
f 4 5 29 28
f 5 6 30 29
f 6 7 31 30
f 7 8 32 31
f 8 9 33 32
f 9 10 34 33
f 10 11 35 34
f 11 12 36 35
f 12 13 37 36
f 13 14 38 37
f 14 15 39 38
f 15 16 40 39
f 16 17 41 40
f 17 18 42 41
f 18 19 43 42
f 19 20 44 43
f 20 21 45 44
f 21 22 46 45
f 22 23 47 46
f 23 24 48 47
f 24 1 25 48
f 1 2 3 4 5 6 7 8 9 10 11 12 13 14 15 16 17 18 19 20 21 22 23 24
f 48 47 46 45 44 43 42 41 40 39 38 37 36 35 34 33 32 31 30 29 28 27 26 25
