o stage7_seoul_bus
v -380.0000 -104.0000 0.0000
v 380.0000 -104.0000 0.0000
v 380.0000 104.0000 0.0000
v -380.0000 104.0000 0.0000
v -360.0000 -96.0000 138.0000
v 360.0000 -96.0000 138.0000
v 360.0000 96.0000 138.0000
v -360.0000 96.0000 138.0000
v -360.0000 -96.0000 138.0000
v 360.0000 -96.0000 138.0000
v 360.0000 96.0000 138.0000
v -360.0000 96.0000 138.0000
v -330.0000 -80.0000 172.0000
v 330.0000 -80.0000 172.0000
v 330.0000 80.0000 172.0000
v -330.0000 80.0000 172.0000
v 345.0000 -94.0000 42.0000
v 363.0000 -94.0000 42.0000
v 363.0000 -38.0000 42.0000
v 345.0000 -38.0000 42.0000
v 345.0000 -94.0000 58.0000
v 363.0000 -94.0000 58.0000
v 363.0000 -38.0000 58.0000
v 345.0000 -38.0000 58.0000
v 345.0000 38.0000 42.0000
v 363.0000 38.0000 42.0000
v 363.0000 94.0000 42.0000
v 345.0000 94.0000 42.0000
v 345.0000 38.0000 58.0000
v 363.0000 38.0000 58.0000
v 363.0000 94.0000 58.0000
v 345.0000 94.0000 58.0000
v -390.0000 -86.0000 62.0000
v -374.0000 -86.0000 62.0000
v -374.0000 -38.0000 62.0000
v -390.0000 -38.0000 62.0000
v -390.0000 -86.0000 74.0000
v -374.0000 -86.0000 74.0000
v -374.0000 -38.0000 74.0000
v -390.0000 -38.0000 74.0000
v -390.0000 38.0000 62.0000
v -374.0000 38.0000 62.0000
v -374.0000 86.0000 62.0000
v -390.0000 86.0000 62.0000
v -390.0000 38.0000 74.0000
v -374.0000 38.0000 74.0000
v -374.0000 86.0000 74.0000
v -390.0000 86.0000 74.0000
v -292.0000 -112.0000 92.0000
v -208.0000 -112.0000 92.0000
v -208.0000 -104.0000 92.0000
v -292.0000 -104.0000 92.0000
v -292.0000 -112.0000 124.0000
v -208.0000 -112.0000 124.0000
v -208.0000 -104.0000 124.0000
v -292.0000 -104.0000 124.0000
v -292.0000 104.0000 92.0000
v -208.0000 104.0000 92.0000
v -208.0000 112.0000 92.0000
v -292.0000 112.0000 92.0000
v -292.0000 104.0000 124.0000
v -208.0000 104.0000 124.0000
v -208.0000 112.0000 124.0000
v -292.0000 112.0000 124.0000
v -162.0000 -112.0000 92.0000
v -78.0000 -112.0000 92.0000
v -78.0000 -104.0000 92.0000
v -162.0000 -104.0000 92.0000
v -162.0000 -112.0000 124.0000
v -78.0000 -112.0000 124.0000
v -78.0000 -104.0000 124.0000
v -162.0000 -104.0000 124.0000
v -162.0000 104.0000 92.0000
v -78.0000 104.0000 92.0000
v -78.0000 112.0000 92.0000
v -162.0000 112.0000 92.0000
v -162.0000 104.0000 124.0000
v -78.0000 104.0000 124.0000
v -78.0000 112.0000 124.0000
v -162.0000 112.0000 124.0000
v -32.0000 -112.0000 92.0000
v 52.0000 -112.0000 92.0000
v 52.0000 -104.0000 92.0000
v -32.0000 -104.0000 92.0000
v -32.0000 -112.0000 124.0000
v 52.0000 -112.0000 124.0000
v 52.0000 -104.0000 124.0000
v -32.0000 -104.0000 124.0000
v -32.0000 104.0000 92.0000
v 52.0000 104.0000 92.0000
v 52.0000 112.0000 92.0000
v -32.0000 112.0000 92.0000
v -32.0000 104.0000 124.0000
v 52.0000 104.0000 124.0000
v 52.0000 112.0000 124.0000
v -32.0000 112.0000 124.0000
v 98.0000 -112.0000 92.0000
v 182.0000 -112.0000 92.0000
v 182.0000 -104.0000 92.0000
v 98.0000 -104.0000 92.0000
v 98.0000 -112.0000 124.0000
v 182.0000 -112.0000 124.0000
v 182.0000 -104.0000 124.0000
v 98.0000 -104.0000 124.0000
v 98.0000 104.0000 92.0000
v 182.0000 104.0000 92.0000
v 182.0000 112.0000 92.0000
v 98.0000 112.0000 92.0000
v 98.0000 104.0000 124.0000
v 182.0000 104.0000 124.0000
v 182.0000 112.0000 124.0000
v 98.0000 112.0000 124.0000
v 228.0000 -112.0000 92.0000
v 312.0000 -112.0000 92.0000
v 312.0000 -104.0000 92.0000
v 228.0000 -104.0000 92.0000
v 228.0000 -112.0000 124.0000
v 312.0000 -112.0000 124.0000
v 312.0000 -104.0000 124.0000
v 228.0000 -104.0000 124.0000
v 228.0000 104.0000 92.0000
v 312.0000 104.0000 92.0000
v 312.0000 112.0000 92.0000
v 228.0000 112.0000 92.0000
v 228.0000 104.0000 124.0000
v 312.0000 104.0000 124.0000
v 312.0000 112.0000 124.0000
v 228.0000 112.0000 124.0000
v -255.0000 -78.0000 36.0000
v -255.0000 -79.8599 47.7426
v -255.0000 -85.2574 58.3358
v -255.0000 -93.6642 66.7426
v -255.0000 -104.2574 72.1401
v -255.0000 -116.0000 74.0000
v -255.0000 -127.7426 72.1401
v -255.0000 -138.3358 66.7426
v -255.0000 -146.7426 58.3358
v -255.0000 -152.1401 47.7426
v -255.0000 -154.0000 36.0000
v -255.0000 -152.1401 24.2574
v -255.0000 -146.7426 13.6642
v -255.0000 -138.3358 5.2574
v -255.0000 -127.7426 -0.1401
v -255.0000 -116.0000 -2.0000
v -255.0000 -104.2574 -0.1401
v -255.0000 -93.6642 5.2574
v -255.0000 -85.2574 13.6642
v -255.0000 -79.8599 24.2574
v -225.0000 -78.0000 36.0000
v -225.0000 -79.8599 47.7426
v -225.0000 -85.2574 58.3358
v -225.0000 -93.6642 66.7426
v -225.0000 -104.2574 72.1401
v -225.0000 -116.0000 74.0000
v -225.0000 -127.7426 72.1401
v -225.0000 -138.3358 66.7426
v -225.0000 -146.7426 58.3358
v -225.0000 -152.1401 47.7426
v -225.0000 -154.0000 36.0000
v -225.0000 -152.1401 24.2574
v -225.0000 -146.7426 13.6642
v -225.0000 -138.3358 5.2574
v -225.0000 -127.7426 -0.1401
v -225.0000 -116.0000 -2.0000
v -225.0000 -104.2574 -0.1401
v -225.0000 -93.6642 5.2574
v -225.0000 -85.2574 13.6642
v -225.0000 -79.8599 24.2574
v -255.0000 154.0000 36.0000
v -255.0000 152.1401 47.7426
v -255.0000 146.7426 58.3358
v -255.0000 138.3358 66.7426
v -255.0000 127.7426 72.1401
v -255.0000 116.0000 74.0000
v -255.0000 104.2574 72.1401
v -255.0000 93.6642 66.7426
v -255.0000 85.2574 58.3358
v -255.0000 79.8599 47.7426
v -255.0000 78.0000 36.0000
v -255.0000 79.8599 24.2574
v -255.0000 85.2574 13.6642
v -255.0000 93.6642 5.2574
v -255.0000 104.2574 -0.1401
v -255.0000 116.0000 -2.0000
v -255.0000 127.7426 -0.1401
v -255.0000 138.3358 5.2574
v -255.0000 146.7426 13.6642
v -255.0000 152.1401 24.2574
v -225.0000 154.0000 36.0000
v -225.0000 152.1401 47.7426
v -225.0000 146.7426 58.3358
v -225.0000 138.3358 66.7426
v -225.0000 127.7426 72.1401
v -225.0000 116.0000 74.0000
v -225.0000 104.2574 72.1401
v -225.0000 93.6642 66.7426
v -225.0000 85.2574 58.3358
v -225.0000 79.8599 47.7426
v -225.0000 78.0000 36.0000
v -225.0000 79.8599 24.2574
v -225.0000 85.2574 13.6642
v -225.0000 93.6642 5.2574
v -225.0000 104.2574 -0.1401
v -225.0000 116.0000 -2.0000
v -225.0000 127.7426 -0.1401
v -225.0000 138.3358 5.2574
v -225.0000 146.7426 13.6642
v -225.0000 152.1401 24.2574
v 25.0000 -78.0000 36.0000
v 25.0000 -79.8599 47.7426
v 25.0000 -85.2574 58.3358
v 25.0000 -93.6642 66.7426
v 25.0000 -104.2574 72.1401
v 25.0000 -116.0000 74.0000
v 25.0000 -127.7426 72.1401
v 25.0000 -138.3358 66.7426
v 25.0000 -146.7426 58.3358
v 25.0000 -152.1401 47.7426
v 25.0000 -154.0000 36.0000
v 25.0000 -152.1401 24.2574
v 25.0000 -146.7426 13.6642
v 25.0000 -138.3358 5.2574
v 25.0000 -127.7426 -0.1401
v 25.0000 -116.0000 -2.0000
v 25.0000 -104.2574 -0.1401
v 25.0000 -93.6642 5.2574
v 25.0000 -85.2574 13.6642
v 25.0000 -79.8599 24.2574
v 55.0000 -78.0000 36.0000
v 55.0000 -79.8599 47.7426
v 55.0000 -85.2574 58.3358
v 55.0000 -93.6642 66.7426
v 55.0000 -104.2574 72.1401
v 55.0000 -116.0000 74.0000
v 55.0000 -127.7426 72.1401
v 55.0000 -138.3358 66.7426
v 55.0000 -146.7426 58.3358
v 55.0000 -152.1401 47.7426
v 55.0000 -154.0000 36.0000
v 55.0000 -152.1401 24.2574
v 55.0000 -146.7426 13.6642
v 55.0000 -138.3358 5.2574
v 55.0000 -127.7426 -0.1401
v 55.0000 -116.0000 -2.0000
v 55.0000 -104.2574 -0.1401
v 55.0000 -93.6642 5.2574
v 55.0000 -85.2574 13.6642
v 55.0000 -79.8599 24.2574
v 25.0000 154.0000 36.0000
v 25.0000 152.1401 47.7426
v 25.0000 146.7426 58.3358
v 25.0000 138.3358 66.7426
v 25.0000 127.7426 72.1401
v 25.0000 116.0000 74.0000
v 25.0000 104.2574 72.1401
v 25.0000 93.6642 66.7426
v 25.0000 85.2574 58.3358
v 25.0000 79.8599 47.7426
v 25.0000 78.0000 36.0000
v 25.0000 79.8599 24.2574
v 25.0000 85.2574 13.6642
v 25.0000 93.6642 5.2574
v 25.0000 104.2574 -0.1401
v 25.0000 116.0000 -2.0000
v 25.0000 127.7426 -0.1401
v 25.0000 138.3358 5.2574
v 25.0000 146.7426 13.6642
v 25.0000 152.1401 24.2574
v 55.0000 154.0000 36.0000
v 55.0000 152.1401 47.7426
v 55.0000 146.7426 58.3358
v 55.0000 138.3358 66.7426
v 55.0000 127.7426 72.1401
v 55.0000 116.0000 74.0000
v 55.0000 104.2574 72.1401
v 55.0000 93.6642 66.7426
v 55.0000 85.2574 58.3358
v 55.0000 79.8599 47.7426
v 55.0000 78.0000 36.0000
v 55.0000 79.8599 24.2574
v 55.0000 85.2574 13.6642
v 55.0000 93.6642 5.2574
v 55.0000 104.2574 -0.1401
v 55.0000 116.0000 -2.0000
v 55.0000 127.7426 -0.1401
v 55.0000 138.3358 5.2574
v 55.0000 146.7426 13.6642
v 55.0000 152.1401 24.2574
v 255.0000 -78.0000 36.0000
v 255.0000 -79.8599 47.7426
v 255.0000 -85.2574 58.3358
v 255.0000 -93.6642 66.7426
v 255.0000 -104.2574 72.1401
v 255.0000 -116.0000 74.0000
v 255.0000 -127.7426 72.1401
v 255.0000 -138.3358 66.7426
v 255.0000 -146.7426 58.3358
v 255.0000 -152.1401 47.7426
v 255.0000 -154.0000 36.0000
v 255.0000 -152.1401 24.2574
v 255.0000 -146.7426 13.6642
v 255.0000 -138.3358 5.2574
v 255.0000 -127.7426 -0.1401
v 255.0000 -116.0000 -2.0000
v 255.0000 -104.2574 -0.1401
v 255.0000 -93.6642 5.2574
v 255.0000 -85.2574 13.6642
v 255.0000 -79.8599 24.2574
v 285.0000 -78.0000 36.0000
v 285.0000 -79.8599 47.7426
v 285.0000 -85.2574 58.3358
v 285.0000 -93.6642 66.7426
v 285.0000 -104.2574 72.1401
v 285.0000 -116.0000 74.0000
v 285.0000 -127.7426 72.1401
v 285.0000 -138.3358 66.7426
v 285.0000 -146.7426 58.3358
v 285.0000 -152.1401 47.7426
v 285.0000 -154.0000 36.0000
v 285.0000 -152.1401 24.2574
v 285.0000 -146.7426 13.6642
v 285.0000 -138.3358 5.2574
v 285.0000 -127.7426 -0.1401
v 285.0000 -116.0000 -2.0000
v 285.0000 -104.2574 -0.1401
v 285.0000 -93.6642 5.2574
v 285.0000 -85.2574 13.6642
v 285.0000 -79.8599 24.2574
v 255.0000 154.0000 36.0000
v 255.0000 152.1401 47.7426
v 255.0000 146.7426 58.3358
v 255.0000 138.3358 66.7426
v 255.0000 127.7426 72.1401
v 255.0000 116.0000 74.0000
v 255.0000 104.2574 72.1401
v 255.0000 93.6642 66.7426
v 255.0000 85.2574 58.3358
v 255.0000 79.8599 47.7426
v 255.0000 78.0000 36.0000
v 255.0000 79.8599 24.2574
v 255.0000 85.2574 13.6642
v 255.0000 93.6642 5.2574
v 255.0000 104.2574 -0.1401
v 255.0000 116.0000 -2.0000
v 255.0000 127.7426 -0.1401
v 255.0000 138.3358 5.2574
v 255.0000 146.7426 13.6642
v 255.0000 152.1401 24.2574
v 285.0000 154.0000 36.0000
v 285.0000 152.1401 47.7426
v 285.0000 146.7426 58.3358
v 285.0000 138.3358 66.7426
v 285.0000 127.7426 72.1401
v 285.0000 116.0000 74.0000
v 285.0000 104.2574 72.1401
v 285.0000 93.6642 66.7426
v 285.0000 85.2574 58.3358
v 285.0000 79.8599 47.7426
v 285.0000 78.0000 36.0000
v 285.0000 79.8599 24.2574
v 285.0000 85.2574 13.6642
v 285.0000 93.6642 5.2574
v 285.0000 104.2574 -0.1401
v 285.0000 116.0000 -2.0000
v 285.0000 127.7426 -0.1401
v 285.0000 138.3358 5.2574
v 285.0000 146.7426 13.6642
v 285.0000 152.1401 24.2574
f 1 2 3 4
f 5 8 7 6
f 1 5 6 2
f 2 6 7 3
f 3 7 8 4
f 4 8 5 1
f 9 10 11 12
f 13 16 15 14
f 9 13 14 10
f 10 14 15 11
f 11 15 16 12
f 12 16 13 9
f 17 18 19 20
f 21 24 23 22
f 17 21 22 18
f 18 22 23 19
f 19 23 24 20
f 20 24 21 17
f 25 26 27 28
f 29 32 31 30
f 25 29 30 26
f 26 30 31 27
f 27 31 32 28
f 28 32 29 25
f 33 34 35 36
f 37 40 39 38
f 33 37 38 34
f 34 38 39 35
f 35 39 40 36
f 36 40 37 33
f 41 42 43 44
f 45 48 47 46
f 41 45 46 42
f 42 46 47 43
f 43 47 48 44
f 44 48 45 41
f 49 50 51 52
f 53 56 55 54
f 49 53 54 50
f 50 54 55 51
f 51 55 56 52
f 52 56 53 49
f 57 58 59 60
f 61 64 63 62
f 57 61 62 58
f 58 62 63 59
f 59 63 64 60
f 60 64 61 57
f 65 66 67 68
f 69 72 71 70
f 65 69 70 66
f 66 70 71 67
f 67 71 72 68
f 68 72 69 65
f 73 74 75 76
f 77 80 79 78
f 73 77 78 74
f 74 78 79 75
f 75 79 80 76
f 76 80 77 73
f 81 82 83 84
f 85 88 87 86
f 81 85 86 82
f 82 86 87 83
f 83 87 88 84
f 84 88 85 81
f 89 90 91 92
f 93 96 95 94
f 89 93 94 90
f 90 94 95 91
f 91 95 96 92
f 92 96 93 89
f 97 98 99 100
f 101 104 103 102
f 97 101 102 98
f 98 102 103 99
f 99 103 104 100
f 100 104 101 97
f 105 106 107 108
f 109 112 111 110
f 105 109 110 106
f 106 110 111 107
f 107 111 112 108
f 108 112 109 105
f 113 114 115 116
f 117 120 119 118
f 113 117 118 114
f 114 118 119 115
f 115 119 120 116
f 116 120 117 113
f 121 122 123 124
f 125 128 127 126
f 121 125 126 122
f 122 126 127 123
f 123 127 128 124
f 124 128 125 121
f 129 130 150 149
f 130 131 151 150
f 131 132 152 151
f 132 133 153 152
f 133 134 154 153
f 134 135 155 154
f 135 136 156 155
f 136 137 157 156
f 137 138 158 157
f 138 139 159 158
f 139 140 160 159
f 140 141 161 160
f 141 142 162 161
f 142 143 163 162
f 143 144 164 163
f 144 145 165 164
f 145 146 166 165
f 146 147 167 166
f 147 148 168 167
f 148 129 149 168
f 129 130 131 132 133 134 135 136 137 138 139 140 141 142 143 144 145 146 147 148
f 168 167 166 165 164 163 162 161 160 159 158 157 156 155 154 153 152 151 150 149
f 169 170 190 189
f 170 171 191 190
f 171 172 192 191
f 172 173 193 192
f 173 174 194 193
f 174 175 195 194
f 175 176 196 195
f 176 177 197 196
f 177 178 198 197
f 178 179 199 198
f 179 180 200 199
f 180 181 201 200
f 181 182 202 201
f 182 183 203 202
f 183 184 204 203
f 184 185 205 204
f 185 186 206 205
f 186 187 207 206
f 187 188 208 207
f 188 169 189 208
f 169 170 171 172 173 174 175 176 177 178 179 180 181 182 183 184 185 186 187 188
f 208 207 206 205 204 203 202 201 200 199 198 197 196 195 194 193 192 191 190 189
f 209 210 230 229
f 210 211 231 230
f 211 212 232 231
f 212 213 233 232
f 213 214 234 233
f 214 215 235 234
f 215 216 236 235
f 216 217 237 236
f 217 218 238 237
f 218 219 239 238
f 219 220 240 239
f 220 221 241 240
f 221 222 242 241
f 222 223 243 242
f 223 224 244 243
f 224 225 245 244
f 225 226 246 245
f 226 227 247 246
f 227 228 248 247
f 228 209 229 248
f 209 210 211 212 213 214 215 216 217 218 219 220 221 222 223 224 225 226 227 228
f 248 247 246 245 244 243 242 241 240 239 238 237 236 235 234 233 232 231 230 229
f 249 250 270 269
f 250 251 271 270
f 251 252 272 271
f 252 253 273 272
f 253 254 274 273
f 254 255 275 274
f 255 256 276 275
f 256 257 277 276
f 257 258 278 277
f 258 259 279 278
f 259 260 280 279
f 260 261 281 280
f 261 262 282 281
f 262 263 283 282
f 263 264 284 283
f 264 265 285 284
f 265 266 286 285
f 266 267 287 286
f 267 268 288 287
f 268 249 269 288
f 249 250 251 252 253 254 255 256 257 258 259 260 261 262 263 264 265 266 267 268
f 288 287 286 285 284 283 282 281 280 279 278 277 276 275 274 273 272 271 270 269
f 289 290 310 309
f 290 291 311 310
f 291 292 312 311
f 292 293 313 312
f 293 294 314 313
f 294 295 315 314
f 295 296 316 315
f 296 297 317 316
f 297 298 318 317
f 298 299 319 318
f 299 300 320 319
f 300 301 321 320
f 301 302 322 321
f 302 303 323 322
f 303 304 324 323
f 304 305 325 324
f 305 306 326 325
f 306 307 327 326
f 307 308 328 327
f 308 289 309 328
f 289 290 291 292 293 294 295 296 297 298 299 300 301 302 303 304 305 306 307 308
f 328 327 326 325 324 323 322 321 320 319 318 317 316 315 314 313 312 311 310 309
f 329 330 350 349
f 330 331 351 350
f 331 332 352 351
f 332 333 353 352
f 333 334 354 353
f 334 335 355 354
f 335 336 356 355
f 336 337 357 356
f 337 338 358 357
f 338 339 359 358
f 339 340 360 359
f 340 341 361 360
f 341 342 362 361
f 342 343 363 362
f 343 344 364 363
f 344 345 365 364
f 345 346 366 365
f 346 347 367 366
f 347 348 368 367
f 348 329 349 368
f 329 330 331 332 333 334 335 336 337 338 339 340 341 342 343 344 345 346 347 348
f 368 367 366 365 364 363 362 361 360 359 358 357 356 355 354 353 352 351 350 349
