o signal_pole_slim
v 4.0000 0.0000 0.0000
v 3.8042 1.2361 0.0000
v 3.2361 2.3511 0.0000
v 2.3511 3.2361 0.0000
v 1.2361 3.8042 0.0000
v 0.0000 4.0000 0.0000
v -1.2361 3.8042 0.0000
v -2.3511 3.2361 0.0000
v -3.2361 2.3511 0.0000
v -3.8042 1.2361 0.0000
v -4.0000 0.0000 0.0000
v -3.8042 -1.2361 0.0000
v -3.2361 -2.3511 0.0000
v -2.3511 -3.2361 0.0000
v -1.2361 -3.8042 0.0000
v -0.0000 -4.0000 0.0000
v 1.2361 -3.8042 0.0000
v 2.3511 -3.2361 0.0000
v 3.2361 -2.3511 0.0000
v 3.8042 -1.2361 0.0000
v 4.0000 0.0000 180.0000
v 3.8042 1.2361 180.0000
v 3.2361 2.3511 180.0000
v 2.3511 3.2361 180.0000
v 1.2361 3.8042 180.0000
v 0.0000 4.0000 180.0000
v -1.2361 3.8042 180.0000
v -2.3511 3.2361 180.0000
v -3.2361 2.3511 180.0000
v -3.8042 1.2361 180.0000
v -4.0000 0.0000 180.0000
v -3.8042 -1.2361 180.0000
v -3.2361 -2.3511 180.0000
v -2.3511 -3.2361 180.0000
v -1.2361 -3.8042 180.0000
v -0.0000 -4.0000 180.0000
v 1.2361 -3.8042 180.0000
v 2.3511 -3.2361 180.0000
v 3.2361 -2.3511 180.0000
v 3.8042 -1.2361 180.0000
f 1 2 22 21
f 2 3 23 22
f 3 4 24 23
f 4 5 25 24
f 5 6 26 25
f 6 7 27 26
f 7 8 28 27
f 8 9 29 28
f 9 10 30 29
f 10 11 31 30
f 11 12 32 31
f 12 13 33 32
f 13 14 34 33
f 14 15 35 34
f 15 16 36 35
f 16 17 37 36
f 17 18 38 37
f 18 19 39 38
f 19 20 40 39
f 20 1 21 40
f 1 2 3 4 5 6 7 8 9 10 11 12 13 14 15 16 17 18 19 20
f 40 39 38 37 36 35 34 33 32 31 30 29 28 27 26 25 24 23 22 21
