o stage7_seoul_passenger_sedan
v -205.0000 -82.0000 0.0000
v 205.0000 -82.0000 0.0000
v 205.0000 82.0000 0.0000
v -205.0000 82.0000 0.0000
v -188.0000 -72.0000 58.0000
v 188.0000 -72.0000 58.0000
v 188.0000 72.0000 58.0000
v -188.0000 72.0000 58.0000
v -110.0000 -67.0000 58.0000
v 54.0000 -67.0000 58.0000
v 54.0000 67.0000 58.0000
v -110.0000 67.0000 58.0000
v -74.0000 -50.0000 120.0000
v 42.0000 -50.0000 120.0000
v 42.0000 50.0000 120.0000
v -74.0000 50.0000 120.0000
v 48.0000 -72.0000 48.0000
v 184.0000 -72.0000 48.0000
v 184.0000 72.0000 48.0000
v 48.0000 72.0000 48.0000
v 76.0000 -58.0000 76.0000
v 180.0000 -58.0000 76.0000
v 180.0000 58.0000 76.0000
v 76.0000 58.0000 76.0000
v -196.0000 -70.0000 46.0000
v -104.0000 -70.0000 46.0000
v -104.0000 70.0000 46.0000
v -196.0000 70.0000 46.0000
v -194.0000 -54.0000 70.0000
v -126.0000 -54.0000 70.0000
v -126.0000 54.0000 70.0000
v -194.0000 54.0000 70.0000
v 203.0000 -64.0000 34.0000
v 213.0000 -64.0000 34.0000
v 213.0000 -32.0000 34.0000
v 203.0000 -32.0000 34.0000
v 203.0000 -64.0000 44.0000
v 213.0000 -64.0000 44.0000
v 213.0000 -32.0000 44.0000
v 203.0000 -32.0000 44.0000
v 203.0000 32.0000 34.0000
v 213.0000 32.0000 34.0000
v 213.0000 64.0000 34.0000
v 203.0000 64.0000 34.0000
v 203.0000 32.0000 44.0000
v 213.0000 32.0000 44.0000
v 213.0000 64.0000 44.0000
v 203.0000 64.0000 44.0000
v -215.0000 -59.0000 42.0000
v -205.0000 -59.0000 42.0000
v -205.0000 -31.0000 42.0000
v -215.0000 -31.0000 42.0000
v -215.0000 -59.0000 51.0000
v -205.0000 -59.0000 51.0000
v -205.0000 -31.0000 51.0000
v -215.0000 -31.0000 51.0000
v -215.0000 31.0000 42.0000
v -205.0000 31.0000 42.0000
v -205.0000 59.0000 42.0000
v -215.0000 59.0000 42.0000
v -215.0000 31.0000 51.0000
v -205.0000 31.0000 51.0000
v -205.0000 59.0000 51.0000
v -215.0000 59.0000 51.0000
v -126.0000 -54.0000 34.0000
v -126.0000 -55.6641 44.5066
v -126.0000 -60.4934 53.9847
v -126.0000 -68.0153 61.5066
v -126.0000 -77.4934 66.3359
v -126.0000 -88.0000 68.0000
v -126.0000 -98.5066 66.3359
v -126.0000 -107.9847 61.5066
v -126.0000 -115.5066 53.9847
v -126.0000 -120.3359 44.5066
v -126.0000 -122.0000 34.0000
v -126.0000 -120.3359 23.4934
v -126.0000 -115.5066 14.0153
v -126.0000 -107.9847 6.4934
v -126.0000 -98.5066 1.6641
v -126.0000 -88.0000 0.0000
v -126.0000 -77.4934 1.6641
v -126.0000 -68.0153 6.4934
v -126.0000 -60.4934 14.0153
v -126.0000 -55.6641 23.4934
v -98.0000 -54.0000 34.0000
v -98.0000 -55.6641 44.5066
v -98.0000 -60.4934 53.9847
v -98.0000 -68.0153 61.5066
v -98.0000 -77.4934 66.3359
v -98.0000 -88.0000 68.0000
v -98.0000 -98.5066 66.3359
v -98.0000 -107.9847 61.5066
v -98.0000 -115.5066 53.9847
v -98.0000 -120.3359 44.5066
v -98.0000 -122.0000 34.0000
v -98.0000 -120.3359 23.4934
v -98.0000 -115.5066 14.0153
v -98.0000 -107.9847 6.4934
v -98.0000 -98.5066 1.6641
v -98.0000 -88.0000 0.0000
v -98.0000 -77.4934 1.6641
v -98.0000 -68.0153 6.4934
v -98.0000 -60.4934 14.0153
v -98.0000 -55.6641 23.4934
v 98.0000 -54.0000 34.0000
v 98.0000 -55.6641 44.5066
v 98.0000 -60.4934 53.9847
v 98.0000 -68.0153 61.5066
v 98.0000 -77.4934 66.3359
v 98.0000 -88.0000 68.0000
v 98.0000 -98.5066 66.3359
v 98.0000 -107.9847 61.5066
v 98.0000 -115.5066 53.9847
v 98.0000 -120.3359 44.5066
v 98.0000 -122.0000 34.0000
v 98.0000 -120.3359 23.4934
v 98.0000 -115.5066 14.0153
v 98.0000 -107.9847 6.4934
v 98.0000 -98.5066 1.6641
v 98.0000 -88.0000 0.0000
v 98.0000 -77.4934 1.6641
v 98.0000 -68.0153 6.4934
v 98.0000 -60.4934 14.0153
v 98.0000 -55.6641 23.4934
v 126.0000 -54.0000 34.0000
v 126.0000 -55.6641 44.5066
v 126.0000 -60.4934 53.9847
v 126.0000 -68.0153 61.5066
v 126.0000 -77.4934 66.3359
v 126.0000 -88.0000 68.0000
v 126.0000 -98.5066 66.3359
v 126.0000 -107.9847 61.5066
v 126.0000 -115.5066 53.9847
v 126.0000 -120.3359 44.5066
v 126.0000 -122.0000 34.0000
v 126.0000 -120.3359 23.4934
v 126.0000 -115.5066 14.0153
v 126.0000 -107.9847 6.4934
v 126.0000 -98.5066 1.6641
v 126.0000 -88.0000 0.0000
v 126.0000 -77.4934 1.6641
v 126.0000 -68.0153 6.4934
v 126.0000 -60.4934 14.0153
v 126.0000 -55.6641 23.4934
v -126.0000 122.0000 34.0000
v -126.0000 120.3359 44.5066
v -126.0000 115.5066 53.9847
v -126.0000 107.9847 61.5066
v -126.0000 98.5066 66.3359
v -126.0000 88.0000 68.0000
v -126.0000 77.4934 66.3359
v -126.0000 68.0153 61.5066
v -126.0000 60.4934 53.9847
v -126.0000 55.6641 44.5066
v -126.0000 54.0000 34.0000
v -126.0000 55.6641 23.4934
v -126.0000 60.4934 14.0153
v -126.0000 68.0153 6.4934
v -126.0000 77.4934 1.6641
v -126.0000 88.0000 0.0000
v -126.0000 98.5066 1.6641
v -126.0000 107.9847 6.4934
v -126.0000 115.5066 14.0153
v -126.0000 120.3359 23.4934
v -98.0000 122.0000 34.0000
v -98.0000 120.3359 44.5066
v -98.0000 115.5066 53.9847
v -98.0000 107.9847 61.5066
v -98.0000 98.5066 66.3359
v -98.0000 88.0000 68.0000
v -98.0000 77.4934 66.3359
v -98.0000 68.0153 61.5066
v -98.0000 60.4934 53.9847
v -98.0000 55.6641 44.5066
v -98.0000 54.0000 34.0000
v -98.0000 55.6641 23.4934
v -98.0000 60.4934 14.0153
v -98.0000 68.0153 6.4934
v -98.0000 77.4934 1.6641
v -98.0000 88.0000 0.0000
v -98.0000 98.5066 1.6641
v -98.0000 107.9847 6.4934
v -98.0000 115.5066 14.0153
v -98.0000 120.3359 23.4934
v 98.0000 122.0000 34.0000
v 98.0000 120.3359 44.5066
v 98.0000 115.5066 53.9847
v 98.0000 107.9847 61.5066
v 98.0000 98.5066 66.3359
v 98.0000 88.0000 68.0000
v 98.0000 77.4934 66.3359
v 98.0000 68.0153 61.5066
v 98.0000 60.4934 53.9847
v 98.0000 55.6641 44.5066
v 98.0000 54.0000 34.0000
v 98.0000 55.6641 23.4934
v 98.0000 60.4934 14.0153
v 98.0000 68.0153 6.4934
v 98.0000 77.4934 1.6641
v 98.0000 88.0000 0.0000
v 98.0000 98.5066 1.6641
v 98.0000 107.9847 6.4934
v 98.0000 115.5066 14.0153
v 98.0000 120.3359 23.4934
v 126.0000 122.0000 34.0000
v 126.0000 120.3359 44.5066
v 126.0000 115.5066 53.9847
v 126.0000 107.9847 61.5066
v 126.0000 98.5066 66.3359
v 126.0000 88.0000 68.0000
v 126.0000 77.4934 66.3359
v 126.0000 68.0153 61.5066
v 126.0000 60.4934 53.9847
v 126.0000 55.6641 44.5066
v 126.0000 54.0000 34.0000
v 126.0000 55.6641 23.4934
v 126.0000 60.4934 14.0153
v 126.0000 68.0153 6.4934
v 126.0000 77.4934 1.6641
v 126.0000 88.0000 0.0000
v 126.0000 98.5066 1.6641
v 126.0000 107.9847 6.4934
v 126.0000 115.5066 14.0153
v 126.0000 120.3359 23.4934
f 1 2 3 4
f 5 8 7 6
f 1 5 6 2
f 2 6 7 3
f 3 7 8 4
f 4 8 5 1
f 9 10 11 12
f 13 16 15 14
f 9 13 14 10
f 10 14 15 11
f 11 15 16 12
f 12 16 13 9
f 17 18 19 20
f 21 24 23 22
f 17 21 22 18
f 18 22 23 19
f 19 23 24 20
f 20 24 21 17
f 25 26 27 28
f 29 32 31 30
f 25 29 30 26
f 26 30 31 27
f 27 31 32 28
f 28 32 29 25
f 33 34 35 36
f 37 40 39 38
f 33 37 38 34
f 34 38 39 35
f 35 39 40 36
f 36 40 37 33
f 41 42 43 44
f 45 48 47 46
f 41 45 46 42
f 42 46 47 43
f 43 47 48 44
f 44 48 45 41
f 49 50 51 52
f 53 56 55 54
f 49 53 54 50
f 50 54 55 51
f 51 55 56 52
f 52 56 53 49
f 57 58 59 60
f 61 64 63 62
f 57 61 62 58
f 58 62 63 59
f 59 63 64 60
f 60 64 61 57
f 65 66 86 85
f 66 67 87 86
f 67 68 88 87
f 68 69 89 88
f 69 70 90 89
f 70 71 91 90
f 71 72 92 91
f 72 73 93 92
f 73 74 94 93
f 74 75 95 94
f 75 76 96 95
f 76 77 97 96
f 77 78 98 97
f 78 79 99 98
f 79 80 100 99
f 80 81 101 100
f 81 82 102 101
f 82 83 103 102
f 83 84 104 103
f 84 65 85 104
f 65 66 67 68 69 70 71 72 73 74 75 76 77 78 79 80 81 82 83 84
f 104 103 102 101 100 99 98 97 96 95 94 93 92 91 90 89 88 87 86 85
f 105 106 126 125
f 106 107 127 126
f 107 108 128 127
f 108 109 129 128
f 109 110 130 129
f 110 111 131 130
f 111 112 132 131
f 112 113 133 132
f 113 114 134 133
f 114 115 135 134
f 115 116 136 135
f 116 117 137 136
f 117 118 138 137
f 118 119 139 138
f 119 120 140 139
f 120 121 141 140
f 121 122 142 141
f 122 123 143 142
f 123 124 144 143
f 124 105 125 144
f 105 106 107 108 109 110 111 112 113 114 115 116 117 118 119 120 121 122 123 124
f 144 143 142 141 140 139 138 137 136 135 134 133 132 131 130 129 128 127 126 125
f 145 146 166 165
f 146 147 167 166
f 147 148 168 167
f 148 149 169 168
f 149 150 170 169
f 150 151 171 170
f 151 152 172 171
f 152 153 173 172
f 153 154 174 173
f 154 155 175 174
f 155 156 176 175
f 156 157 177 176
f 157 158 178 177
f 158 159 179 178
f 159 160 180 179
f 160 161 181 180
f 161 162 182 181
f 162 163 183 182
f 163 164 184 183
f 164 145 165 184
f 145 146 147 148 149 150 151 152 153 154 155 156 157 158 159 160 161 162 163 164
f 184 183 182 181 180 179 178 177 176 175 174 173 172 171 170 169 168 167 166 165
f 185 186 206 205
f 186 187 207 206
f 187 188 208 207
f 188 189 209 208
f 189 190 210 209
f 190 191 211 210
f 191 192 212 211
f 192 193 213 212
f 193 194 214 213
f 194 195 215 214
f 195 196 216 215
f 196 197 217 216
f 197 198 218 217
f 198 199 219 218
f 199 200 220 219
f 200 201 221 220
f 201 202 222 221
f 202 203 223 222
f 203 204 224 223
f 204 185 205 224
f 185 186 187 188 189 190 191 192 193 194 195 196 197 198 199 200 201 202 203 204
f 224 223 222 221 220 219 218 217 216 215 214 213 212 211 210 209 208 207 206 205
