o stage7_seoul_emergency_van
v -236.0000 -88.0000 0.0000
v 236.0000 -88.0000 0.0000
v 236.0000 88.0000 0.0000
v -236.0000 88.0000 0.0000
v -220.0000 -78.0000 88.0000
v 220.0000 -78.0000 88.0000
v 220.0000 78.0000 88.0000
v -220.0000 78.0000 88.0000
v -64.0000 -76.0000 88.0000
v 168.0000 -76.0000 88.0000
v 168.0000 76.0000 88.0000
v -64.0000 76.0000 88.0000
v -40.0000 -58.0000 150.0000
v 144.0000 -58.0000 150.0000
v 144.0000 58.0000 150.0000
v -40.0000 58.0000 150.0000
v -104.0000 -28.0000 154.0000
v 24.0000 -28.0000 154.0000
v 24.0000 28.0000 154.0000
v -104.0000 28.0000 154.0000
v -104.0000 -28.0000 168.0000
v 24.0000 -28.0000 168.0000
v 24.0000 28.0000 168.0000
v -104.0000 28.0000 168.0000
v 234.0000 -70.0000 42.0000
v 246.0000 -70.0000 42.0000
v 246.0000 -34.0000 42.0000
v 234.0000 -34.0000 42.0000
v 234.0000 -70.0000 54.0000
v 246.0000 -70.0000 54.0000
v 246.0000 -34.0000 54.0000
v 234.0000 -34.0000 54.0000
v 234.0000 34.0000 42.0000
v 246.0000 34.0000 42.0000
v 246.0000 70.0000 42.0000
v 234.0000 70.0000 42.0000
v 234.0000 34.0000 54.0000
v 246.0000 34.0000 54.0000
v 246.0000 70.0000 54.0000
v 234.0000 70.0000 54.0000
v -242.0000 -66.0000 48.0000
v -230.0000 -66.0000 48.0000
v -230.0000 -34.0000 48.0000
v -242.0000 -34.0000 48.0000
v -242.0000 -66.0000 58.0000
v -230.0000 -66.0000 58.0000
v -230.0000 -34.0000 58.0000
v -242.0000 -34.0000 58.0000
v -242.0000 34.0000 48.0000
v -230.0000 34.0000 48.0000
v -230.0000 66.0000 48.0000
v -242.0000 66.0000 48.0000
v -242.0000 34.0000 58.0000
v -230.0000 34.0000 58.0000
v -230.0000 66.0000 58.0000
v -242.0000 66.0000 58.0000
v -147.0000 -60.0000 36.0000
v -147.0000 -61.7620 47.1246
v -147.0000 -66.8754 57.1603
v -147.0000 -74.8397 65.1246
v -147.0000 -84.8754 70.2380
v -147.0000 -96.0000 72.0000
v -147.0000 -107.1246 70.2380
v -147.0000 -117.1603 65.1246
v -147.0000 -125.1246 57.1603
v -147.0000 -130.2380 47.1246
v -147.0000 -132.0000 36.0000
v -147.0000 -130.2380 24.8754
v -147.0000 -125.1246 14.8397
v -147.0000 -117.1603 6.8754
v -147.0000 -107.1246 1.7620
v -147.0000 -96.0000 0.0000
v -147.0000 -84.8754 1.7620
v -147.0000 -74.8397 6.8754
v -147.0000 -66.8754 14.8397
v -147.0000 -61.7620 24.8754
v -117.0000 -60.0000 36.0000
v -117.0000 -61.7620 47.1246
v -117.0000 -66.8754 57.1603
v -117.0000 -74.8397 65.1246
v -117.0000 -84.8754 70.2380
v -117.0000 -96.0000 72.0000
v -117.0000 -107.1246 70.2380
v -117.0000 -117.1603 65.1246
v -117.0000 -125.1246 57.1603
v -117.0000 -130.2380 47.1246
v -117.0000 -132.0000 36.0000
v -117.0000 -130.2380 24.8754
v -117.0000 -125.1246 14.8397
v -117.0000 -117.1603 6.8754
v -117.0000 -107.1246 1.7620
v -117.0000 -96.0000 0.0000
v -117.0000 -84.8754 1.7620
v -117.0000 -74.8397 6.8754
v -117.0000 -66.8754 14.8397
v -117.0000 -61.7620 24.8754
v 117.0000 -60.0000 36.0000
v 117.0000 -61.7620 47.1246
v 117.0000 -66.8754 57.1603
v 117.0000 -74.8397 65.1246
v 117.0000 -84.8754 70.2380
v 117.0000 -96.0000 72.0000
v 117.0000 -107.1246 70.2380
v 117.0000 -117.1603 65.1246
v 117.0000 -125.1246 57.1603
v 117.0000 -130.2380 47.1246
v 117.0000 -132.0000 36.0000
v 117.0000 -130.2380 24.8754
v 117.0000 -125.1246 14.8397
v 117.0000 -117.1603 6.8754
v 117.0000 -107.1246 1.7620
v 117.0000 -96.0000 0.0000
v 117.0000 -84.8754 1.7620
v 117.0000 -74.8397 6.8754
v 117.0000 -66.8754 14.8397
v 117.0000 -61.7620 24.8754
v 147.0000 -60.0000 36.0000
v 147.0000 -61.7620 47.1246
v 147.0000 -66.8754 57.1603
v 147.0000 -74.8397 65.1246
v 147.0000 -84.8754 70.2380
v 147.0000 -96.0000 72.0000
v 147.0000 -107.1246 70.2380
v 147.0000 -117.1603 65.1246
v 147.0000 -125.1246 57.1603
v 147.0000 -130.2380 47.1246
v 147.0000 -132.0000 36.0000
v 147.0000 -130.2380 24.8754
v 147.0000 -125.1246 14.8397
v 147.0000 -117.1603 6.8754
v 147.0000 -107.1246 1.7620
v 147.0000 -96.0000 0.0000
v 147.0000 -84.8754 1.7620
v 147.0000 -74.8397 6.8754
v 147.0000 -66.8754 14.8397
v 147.0000 -61.7620 24.8754
v -147.0000 132.0000 36.0000
v -147.0000 130.2380 47.1246
v -147.0000 125.1246 57.1603
v -147.0000 117.1603 65.1246
v -147.0000 107.1246 70.2380
v -147.0000 96.0000 72.0000
v -147.0000 84.8754 70.2380
v -147.0000 74.8397 65.1246
v -147.0000 66.8754 57.1603
v -147.0000 61.7620 47.1246
v -147.0000 60.0000 36.0000
v -147.0000 61.7620 24.8754
v -147.0000 66.8754 14.8397
v -147.0000 74.8397 6.8754
v -147.0000 84.8754 1.7620
v -147.0000 96.0000 0.0000
v -147.0000 107.1246 1.7620
v -147.0000 117.1603 6.8754
v -147.0000 125.1246 14.8397
v -147.0000 130.2380 24.8754
v -117.0000 132.0000 36.0000
v -117.0000 130.2380 47.1246
v -117.0000 125.1246 57.1603
v -117.0000 117.1603 65.1246
v -117.0000 107.1246 70.2380
v -117.0000 96.0000 72.0000
v -117.0000 84.8754 70.2380
v -117.0000 74.8397 65.1246
v -117.0000 66.8754 57.1603
v -117.0000 61.7620 47.1246
v -117.0000 60.0000 36.0000
v -117.0000 61.7620 24.8754
v -117.0000 66.8754 14.8397
v -117.0000 74.8397 6.8754
v -117.0000 84.8754 1.7620
v -117.0000 96.0000 0.0000
v -117.0000 107.1246 1.7620
v -117.0000 117.1603 6.8754
v -117.0000 125.1246 14.8397
v -117.0000 130.2380 24.8754
v 117.0000 132.0000 36.0000
v 117.0000 130.2380 47.1246
v 117.0000 125.1246 57.1603
v 117.0000 117.1603 65.1246
v 117.0000 107.1246 70.2380
v 117.0000 96.0000 72.0000
v 117.0000 84.8754 70.2380
v 117.0000 74.8397 65.1246
v 117.0000 66.8754 57.1603
v 117.0000 61.7620 47.1246
v 117.0000 60.0000 36.0000
v 117.0000 61.7620 24.8754
v 117.0000 66.8754 14.8397
v 117.0000 74.8397 6.8754
v 117.0000 84.8754 1.7620
v 117.0000 96.0000 0.0000
v 117.0000 107.1246 1.7620
v 117.0000 117.1603 6.8754
v 117.0000 125.1246 14.8397
v 117.0000 130.2380 24.8754
v 147.0000 132.0000 36.0000
v 147.0000 130.2380 47.1246
v 147.0000 125.1246 57.1603
v 147.0000 117.1603 65.1246
v 147.0000 107.1246 70.2380
v 147.0000 96.0000 72.0000
v 147.0000 84.8754 70.2380
v 147.0000 74.8397 65.1246
v 147.0000 66.8754 57.1603
v 147.0000 61.7620 47.1246
v 147.0000 60.0000 36.0000
v 147.0000 61.7620 24.8754
v 147.0000 66.8754 14.8397
v 147.0000 74.8397 6.8754
v 147.0000 84.8754 1.7620
v 147.0000 96.0000 0.0000
v 147.0000 107.1246 1.7620
v 147.0000 117.1603 6.8754
v 147.0000 125.1246 14.8397
v 147.0000 130.2380 24.8754
f 1 2 3 4
f 5 8 7 6
f 1 5 6 2
f 2 6 7 3
f 3 7 8 4
f 4 8 5 1
f 9 10 11 12
f 13 16 15 14
f 9 13 14 10
f 10 14 15 11
f 11 15 16 12
f 12 16 13 9
f 17 18 19 20
f 21 24 23 22
f 17 21 22 18
f 18 22 23 19
f 19 23 24 20
f 20 24 21 17
f 25 26 27 28
f 29 32 31 30
f 25 29 30 26
f 26 30 31 27
f 27 31 32 28
f 28 32 29 25
f 33 34 35 36
f 37 40 39 38
f 33 37 38 34
f 34 38 39 35
f 35 39 40 36
f 36 40 37 33
f 41 42 43 44
f 45 48 47 46
f 41 45 46 42
f 42 46 47 43
f 43 47 48 44
f 44 48 45 41
f 49 50 51 52
f 53 56 55 54
f 49 53 54 50
f 50 54 55 51
f 51 55 56 52
f 52 56 53 49
f 57 58 78 77
f 58 59 79 78
f 59 60 80 79
f 60 61 81 80
f 61 62 82 81
f 62 63 83 82
f 63 64 84 83
f 64 65 85 84
f 65 66 86 85
f 66 67 87 86
f 67 68 88 87
f 68 69 89 88
f 69 70 90 89
f 70 71 91 90
f 71 72 92 91
f 72 73 93 92
f 73 74 94 93
f 74 75 95 94
f 75 76 96 95
f 76 57 77 96
f 57 58 59 60 61 62 63 64 65 66 67 68 69 70 71 72 73 74 75 76
f 96 95 94 93 92 91 90 89 88 87 86 85 84 83 82 81 80 79 78 77
f 97 98 118 117
f 98 99 119 118
f 99 100 120 119
f 100 101 121 120
f 101 102 122 121
f 102 103 123 122
f 103 104 124 123
f 104 105 125 124
f 105 106 126 125
f 106 107 127 126
f 107 108 128 127
f 108 109 129 128
f 109 110 130 129
f 110 111 131 130
f 111 112 132 131
f 112 113 133 132
f 113 114 134 133
f 114 115 135 134
f 115 116 136 135
f 116 97 117 136
f 97 98 99 100 101 102 103 104 105 106 107 108 109 110 111 112 113 114 115 116
f 136 135 134 133 132 131 130 129 128 127 126 125 124 123 122 121 120 119 118 117
f 137 138 158 157
f 138 139 159 158
f 139 140 160 159
f 140 141 161 160
f 141 142 162 161
f 142 143 163 162
f 143 144 164 163
f 144 145 165 164
f 145 146 166 165
f 146 147 167 166
f 147 148 168 167
f 148 149 169 168
f 149 150 170 169
f 150 151 171 170
f 151 152 172 171
f 152 153 173 172
f 153 154 174 173
f 154 155 175 174
f 155 156 176 175
f 156 137 157 176
f 137 138 139 140 141 142 143 144 145 146 147 148 149 150 151 152 153 154 155 156
f 176 175 174 173 172 171 170 169 168 167 166 165 164 163 162 161 160 159 158 157
f 177 178 198 197
f 178 179 199 198
f 179 180 200 199
f 180 181 201 200
f 181 182 202 201
f 182 183 203 202
f 183 184 204 203
f 184 185 205 204
f 185 186 206 205
f 186 187 207 206
f 187 188 208 207
f 188 189 209 208
f 189 190 210 209
f 190 191 211 210
f 191 192 212 211
f 192 193 213 212
f 193 194 214 213
f 194 195 215 214
f 195 196 216 215
f 196 177 197 216
f 177 178 179 180 181 182 183 184 185 186 187 188 189 190 191 192 193 194 195 196
f 216 215 214 213 212 211 210 209 208 207 206 205 204 203 202 201 200 199 198 197
