o stage7_seoul_asphalt_imagegen_heightfield
v -2800.000 -775.000 3.772
v -2672.727 -775.000 3.910
v -2545.455 -775.000 3.678
v -2418.182 -775.000 3.476
v -2290.909 -775.000 3.910
v -2163.636 -775.000 4.048
v -2036.364 -775.000 3.698
v -1909.091 -775.000 3.910
v -1781.818 -775.000 4.048
v -1654.545 -775.000 3.772
v -1527.273 -775.000 3.910
v -1400.000 -775.000 4.048
v -1272.727 -775.000 3.772
v -1145.455 -775.000 3.910
v -1018.182 -775.000 3.974
v -890.909 -775.000 3.476
v -763.636 -775.000 2.949
v -636.364 -775.000 1.533
v -509.091 -775.000 0.444
v -381.818 -775.000 1.765
v -254.545 -775.000 2.643
v -127.273 -775.000 3.550
v 0.000 -775.000 2.875
v 127.273 -775.000 3.900
v 254.545 -775.000 1.035
v 381.818 -775.000 1.987
v 509.091 -775.000 2.495
v 636.364 -775.000 3.550
v 763.636 -775.000 3.910
v 890.909 -775.000 4.048
v 1018.182 -775.000 3.772
v 1145.455 -775.000 1.913
v 1272.727 -775.000 3.087
v 1400.000 -775.000 3.772
v 1527.273 -775.000 3.910
v 1654.545 -775.000 2.273
v 1781.818 -775.000 0.961
v 1909.091 -775.000 1.913
v 2036.364 -775.000 4.048
v 2163.636 -775.000 3.550
v 2290.909 -775.000 1.173
v 2418.182 -775.000 3.678
v 2545.455 -775.000 3.772
v 2672.727 -775.000 3.910
v 2800.000 -775.000 3.234
v -2800.000 -688.889 3.910
v -2672.727 -688.889 4.048
v -2545.455 -688.889 2.515
v -2418.182 -688.889 3.244
v -2290.909 -688.889 4.048
v -2163.636 -688.889 3.772
v -2036.364 -688.889 3.392
v -1909.091 -688.889 4.048
v -1781.818 -688.889 3.772
v -1654.545 -688.889 3.910
v -1527.273 -688.889 4.048
v -1400.000 -688.889 3.772
v -1272.727 -688.889 3.910
v -1145.455 -688.889 4.048
v -1018.182 -688.889 3.772
v -890.909 -688.889 3.910
v -763.636 -688.889 4.048
v -636.364 -688.889 3.772
v -509.091 -688.889 3.910
v -381.818 -688.889 4.048
v -254.545 -688.889 3.328
v -127.273 -688.889 2.727
v 0.000 -688.889 3.160
v 127.273 -688.889 3.772
v 254.545 -688.889 1.765
v 381.818 -688.889 1.829
v 509.091 -688.889 2.441
v 636.364 -688.889 3.910
v 763.636 -688.889 4.048
v 890.909 -688.889 3.772
v 1018.182 -688.889 3.910
v 1145.455 -688.889 1.385
v 1272.727 -688.889 3.772
v 1400.000 -688.889 3.910
v 1527.273 -688.889 2.347
v 1654.545 -688.889 3.106
v 1781.818 -688.889 1.469
v 1909.091 -688.889 1.755
v 2036.364 -688.889 3.772
v 2163.636 -688.889 3.910
v 2290.909 -688.889 3.308
v 2418.182 -688.889 3.032
v 2545.455 -688.889 2.875
v 2672.727 -688.889 4.048
v 2800.000 -688.889 3.772
v -2800.000 -602.778 4.048
v -2672.727 -602.778 3.772
v -2545.455 -602.778 1.987
v -2418.182 -602.778 0.942
v -2290.909 -602.778 1.775
v -2163.636 -602.778 1.469
v -2036.364 -602.778 1.385
v -1909.091 -602.778 1.035
v -1781.818 -602.778 1.469
v -1654.545 -602.778 1.903
v -1527.273 -602.778 1.849
v -1400.000 -602.778 2.135
v -1272.727 -602.778 2.347
v -1145.455 -602.778 2.071
v -1018.182 -602.778 2.283
v -890.909 -602.778 2.199
v -763.636 -602.778 1.553
v -636.364 -602.778 1.617
v -509.091 -602.778 1.459
v -381.818 -602.778 0.814
v -254.545 -602.778 1.469
v -127.273 -602.778 2.495
v 0.000 -602.778 1.701
v 127.273 -602.778 3.910
v 254.545 -602.778 2.569
v 381.818 -602.778 1.257
v 509.091 -602.778 1.913
v 636.364 -602.778 4.048
v 763.636 -602.778 3.772
v 890.909 -602.778 3.910
v 1018.182 -602.778 1.459
v 1145.455 -602.778 2.219
v 1272.727 -602.778 3.910
v 1400.000 -602.778 4.048
v 1527.273 -602.778 0.888
v 1654.545 -602.778 2.505
v 1781.818 -602.778 1.385
v 1909.091 -602.778 0.888
v 2036.364 -602.778 3.910
v 2163.636 -602.778 4.048
v 2290.909 -602.778 3.772
v 2418.182 -602.778 3.910
v 2545.455 -602.778 1.755
v 2672.727 -602.778 2.811
v 2800.000 -602.778 3.910
v -2800.000 -516.667 3.772
v -2672.727 -516.667 3.762
v -2545.455 -516.667 2.199
v -2418.182 -516.667 0.740
v -2290.909 -516.667 1.469
v -2163.636 -516.667 1.533
v -2036.364 -516.667 1.405
v -1909.091 -516.667 1.543
v -1781.818 -516.667 1.459
v -1654.545 -516.667 1.035
v -1527.273 -516.667 1.395
v -1400.000 -516.667 2.421
v -1272.727 -516.667 2.071
v -1145.455 -516.667 2.135
v -1018.182 -516.667 2.051
v -890.909 -516.667 0.961
v -763.636 -516.667 0.656
v -636.364 -516.667 1.533
v -509.091 -516.667 1.849
v -381.818 -516.667 0.138
v -254.545 -516.667 0.646
v -127.273 -516.667 1.331
v 0.000 -516.667 0.138
v 127.273 -516.667 2.791
v 254.545 -516.667 2.958
v 381.818 -516.667 0.286
v 509.091 -516.667 0.942
v 636.364 -516.667 3.772
v 763.636 -516.667 3.910
v 890.909 -516.667 2.125
v 1018.182 -516.667 0.666
v 1145.455 -516.667 3.910
v 1272.727 -516.667 4.048
v 1400.000 -516.667 3.772
v 1527.273 -516.667 0.656
v 1654.545 -516.667 3.234
v 1781.818 -516.667 1.405
v 1909.091 -516.667 0.656
v 2036.364 -516.667 3.974
v 2163.636 -516.667 3.772
v 2290.909 -516.667 3.910
v 2418.182 -516.667 4.048
v 2545.455 -516.667 3.772
v 2672.727 -516.667 1.987
v 2800.000 -516.667 3.826
v -2800.000 -430.556 3.170
v -2672.727 -430.556 2.643
v -2545.455 -430.556 0.814
v -2418.182 -430.556 0.952
v -2290.909 -430.556 1.164
v -2163.636 -430.556 0.961
v -2036.364 -430.556 1.247
v -1909.091 -430.556 1.385
v -1781.818 -430.556 1.109
v -1654.545 -430.556 1.026
v -1527.273 -430.556 1.607
v -1400.000 -430.556 2.367
v -1272.727 -430.556 2.209
v -1145.455 -430.556 1.755
v -1018.182 -430.556 0.666
v -890.909 -430.556 0.360
v -763.636 -430.556 0.498
v -636.364 -430.556 0.370
v -509.091 -430.556 1.617
v -381.818 -430.556 0.276
v -254.545 -430.556 0.000
v -127.273 -430.556 1.026
v 0.000 -430.556 0.276
v 127.273 -430.556 1.183
v 254.545 -430.556 3.688
v 381.818 -430.556 0.720
v 509.091 -430.556 1.035
v 636.364 -430.556 2.579
v 763.636 -430.556 3.087
v 890.909 -430.556 1.405
v 1018.182 -430.556 1.026
v 1145.455 -430.556 2.569
v 1272.727 -430.556 2.367
v 1400.000 -430.556 1.543
v 1527.273 -430.556 1.311
v 1654.545 -430.556 1.553
v 1781.818 -430.556 1.321
v 1909.091 -430.556 1.385
v 2036.364 -430.556 1.479
v 2163.636 -430.556 1.987
v 2290.909 -430.556 2.347
v 2418.182 -430.556 2.219
v 2545.455 -430.556 2.505
v 2672.727 -430.556 2.347
v 2800.000 -430.556 1.035
v -2800.000 -344.444 2.421
v -2672.727 -344.444 1.553
v -2545.455 -344.444 1.247
v -2418.182 -344.444 1.237
v -2290.909 -344.444 0.666
v -2163.636 -344.444 0.952
v -2036.364 -344.444 1.311
v -1909.091 -344.444 1.183
v -1781.818 -344.444 1.247
v -1654.545 -344.444 0.868
v -1527.273 -344.444 1.183
v -1400.000 -344.444 2.579
v -1272.727 -344.444 2.347
v -1145.455 -344.444 0.370
v -1018.182 -344.444 0.582
v -890.909 -344.444 1.164
v -763.636 -344.444 0.814
v -636.364 -344.444 0.508
v -509.091 -344.444 0.424
v -381.818 -344.444 0.000
v -254.545 -344.444 0.138
v -127.273 -344.444 0.646
v 0.000 -344.444 0.000
v 127.273 -344.444 0.730
v 254.545 -344.444 3.974
v 381.818 -344.444 1.257
v 509.091 -344.444 2.061
v 636.364 -344.444 3.087
v 763.636 -344.444 3.032
v 890.909 -344.444 1.247
v 1018.182 -344.444 0.276
v 1145.455 -344.444 1.331
v 1272.727 -344.444 0.730
v 1400.000 -344.444 0.276
v 1527.273 -344.444 0.740
v 1654.545 -344.444 1.617
v 1781.818 -344.444 2.717
v 1909.091 -344.444 0.888
v 2036.364 -344.444 0.582
v 2163.636 -344.444 1.829
v 2290.909 -344.444 0.961
v 2418.182 -344.444 0.878
v 2545.455 -344.444 1.829
v 2672.727 -344.444 3.698
v 2800.000 -344.444 3.540
v -2800.000 -258.333 2.663
v -2672.727 -258.333 2.135
v -2545.455 -258.333 2.125
v -2418.182 -258.333 1.479
v -2290.909 -258.333 0.952
v -2163.636 -258.333 1.237
v -2036.364 -258.333 1.035
v -1909.091 -258.333 1.321
v -1781.818 -258.333 1.311
v -1654.545 -258.333 0.518
v -1527.273 -258.333 2.061
v -1400.000 -258.333 2.791
v -1272.727 -258.333 1.035
v -1145.455 -258.333 0.360
v -1018.182 -258.333 0.794
v -890.909 -258.333 0.666
v -763.636 -258.333 0.804
v -636.364 -258.333 0.720
v -509.091 -258.333 0.666
v -381.818 -258.333 0.360
v -254.545 -258.333 0.276
v -127.273 -258.333 0.296
v 0.000 -258.333 0.212
v 127.273 -258.333 0.276
v 254.545 -258.333 1.479
v 381.818 -258.333 1.026
v 509.091 -258.333 1.755
v 636.364 -258.333 3.032
v 763.636 -258.333 2.357
v 890.909 -258.333 0.276
v 1018.182 -258.333 0.000
v 1145.455 -258.333 1.247
v 1272.727 -258.333 0.276
v 1400.000 -258.333 0.000
v 1527.273 -258.333 0.212
v 1654.545 -258.333 1.090
v 1781.818 -258.333 1.923
v 1909.091 -258.333 0.656
v 2036.364 -258.333 0.276
v 2163.636 -258.333 0.444
v 2290.909 -258.333 0.878
v 2418.182 -258.333 0.942
v 2545.455 -258.333 1.405
v 2672.727 -258.333 1.839
v 2800.000 -258.333 3.160
v -2800.000 -172.222 1.913
v -2672.727 -172.222 1.903
v -2545.455 -172.222 1.775
v -2418.182 -172.222 1.543
v -2290.909 -172.222 1.016
v -2163.636 -172.222 1.109
v -2036.364 -172.222 1.321
v -1909.091 -172.222 1.533
v -1781.818 -172.222 0.592
v -1654.545 -172.222 0.138
v -1527.273 -172.222 0.868
v -1400.000 -172.222 0.444
v -1272.727 -172.222 0.138
v -1145.455 -172.222 0.794
v -1018.182 -172.222 0.592
v -890.909 -172.222 0.656
v -763.636 -172.222 0.646
v -636.364 -172.222 0.222
v -509.091 -172.222 0.730
v -381.818 -172.222 1.090
v -254.545 -172.222 0.000
v -127.273 -172.222 0.212
v 0.000 -172.222 0.572
v 127.273 -172.222 0.000
v 254.545 -172.222 2.061
v 381.818 -172.222 1.977
v 509.091 -172.222 1.553
v 636.364 -172.222 2.801
v 763.636 -172.222 1.977
v 890.909 -172.222 0.222
v 1018.182 -172.222 0.138
v 1145.455 -172.222 0.646
v 1272.727 -172.222 0.000
v 1400.000 -172.222 0.138
v 1527.273 -172.222 0.646
v 1654.545 -172.222 0.370
v 1781.818 -172.222 0.730
v 1909.091 -172.222 0.276
v 2036.364 -172.222 0.296
v 2163.636 -172.222 1.099
v 2290.909 -172.222 0.942
v 2418.182 -172.222 0.000
v 2545.455 -172.222 0.360
v 2672.727 -172.222 0.276
v 2800.000 -172.222 1.035
v -2800.000 -86.111 1.829
v -2672.727 -86.111 1.405
v -2545.455 -86.111 1.395
v -2418.182 -86.111 1.164
v -2290.909 -86.111 0.888
v -2163.636 -86.111 1.247
v -2036.364 -86.111 1.311
v -1909.091 -86.111 0.961
v -1781.818 -86.111 0.138
v -1654.545 -86.111 0.498
v -1527.273 -86.111 0.518
v -1400.000 -86.111 0.286
v -1272.727 -86.111 0.276
v -1145.455 -86.111 0.444
v -1018.182 -86.111 0.582
v -890.909 -86.111 0.646
v -763.636 -86.111 0.222
v -636.364 -86.111 0.138
v -509.091 -86.111 0.424
v -381.818 -86.111 1.627
v -254.545 -86.111 0.138
v -127.273 -86.111 0.276
v 0.000 -86.111 0.666
v 127.273 -86.111 0.138
v 254.545 -86.111 2.865
v 381.818 -86.111 3.476
v 509.091 -86.111 1.987
v 636.364 -86.111 2.717
v 763.636 -86.111 1.035
v 890.909 -86.111 0.138
v 1018.182 -86.111 0.276
v 1145.455 -86.111 0.000
v 1272.727 -86.111 0.508
v 1400.000 -86.111 1.829
v 1527.273 -86.111 1.997
v 1654.545 -86.111 1.765
v 1781.818 -86.111 2.051
v 1909.091 -86.111 0.444
v 2036.364 -86.111 0.138
v 2163.636 -86.111 0.498
v 2290.909 -86.111 0.000
v 2418.182 -86.111 0.286
v 2545.455 -86.111 0.498
v 2672.727 -86.111 0.074
v 2800.000 -86.111 0.212
v -2800.000 0.000 1.183
v -2672.727 0.000 1.247
v -2545.455 0.000 1.385
v -2418.182 0.000 0.814
v -2290.909 0.000 1.026
v -2163.636 0.000 1.090
v -2036.364 0.000 0.740
v -1909.091 0.000 0.656
v -1781.818 0.000 0.276
v -1654.545 0.000 0.148
v -1527.273 0.000 0.730
v -1400.000 0.000 0.424
v -1272.727 0.000 0.148
v -1145.455 0.000 0.508
v -1018.182 0.000 0.498
v -890.909 0.000 0.148
v -763.636 0.000 0.138
v -636.364 0.000 0.276
v -509.091 0.000 0.000
v -381.818 0.000 1.099
v -254.545 0.000 0.276
v -127.273 0.000 0.000
v 0.000 0.000 0.730
v 127.273 0.000 0.794
v 254.545 0.000 1.923
v 381.818 0.000 3.910
v 509.091 0.000 2.125
v 636.364 0.000 2.367
v 763.636 0.000 1.543
v 890.909 0.000 0.942
v 1018.182 0.000 1.183
v 1145.455 0.000 1.469
v 1272.727 0.000 1.903
v 1400.000 0.000 1.849
v 1527.273 0.000 1.987
v 1654.545 0.000 2.421
v 1781.818 0.000 2.293
v 1909.091 0.000 1.765
v 2036.364 0.000 1.459
v 2163.636 0.000 1.109
v 2290.909 0.000 1.395
v 2418.182 0.000 2.051
v 2545.455 0.000 1.405
v 2672.727 0.000 0.952
v 2800.000 0.000 1.311
v -2800.000 86.111 0.952
v -2672.727 86.111 1.237
v -2545.455 86.111 0.814
v -2418.182 86.111 0.804
v -2290.909 86.111 1.385
v -2163.636 86.111 1.035
v -2036.364 86.111 0.730
v -1909.091 86.111 0.720
v -1781.818 86.111 0.370
v -1654.545 86.111 0.138
v -1527.273 86.111 0.276
v -1400.000 86.111 0.000
v -1272.727 86.111 0.138
v -1145.455 86.111 0.350
v -1018.182 86.111 0.148
v -890.909 86.111 0.286
v -763.636 86.111 0.276
v -636.364 86.111 0.000
v -509.091 86.111 0.138
v -381.818 86.111 2.495
v -254.545 86.111 0.592
v -127.273 86.111 0.138
v 0.000 86.111 1.385
v 127.273 86.111 0.518
v 254.545 86.111 1.099
v 381.818 86.111 4.048
v 509.091 86.111 1.923
v 636.364 86.111 2.357
v 763.636 86.111 2.421
v 890.909 86.111 2.219
v 1018.182 86.111 3.096
v 1145.455 86.111 3.087
v 1272.727 86.111 3.254
v 1400.000 86.111 3.910
v 1527.273 86.111 3.308
v 1654.545 86.111 2.663
v 1781.818 86.111 3.022
v 1909.091 86.111 3.013
v 2036.364 86.111 2.293
v 2163.636 86.111 3.540
v 2290.909 86.111 4.048
v 2418.182 86.111 3.772
v 2545.455 86.111 3.688
v 2672.727 86.111 1.237
v 2800.000 86.111 1.257
v -2800.000 172.222 1.237
v -2672.727 172.222 1.109
v -2545.455 172.222 0.804
v -2418.182 172.222 0.942
v -2290.909 172.222 1.035
v -2163.636 172.222 1.026
v -2036.364 172.222 0.646
v -1909.091 172.222 0.666
v -1781.818 172.222 0.508
v -1654.545 172.222 0.276
v -1527.273 172.222 0.000
v -1400.000 172.222 0.138
v -1272.727 172.222 0.276
v -1145.455 172.222 0.074
v -1018.182 172.222 0.212
v -890.909 172.222 0.498
v -763.636 172.222 0.000
v -636.364 172.222 0.138
v -509.091 172.222 0.276
v -381.818 172.222 1.849
v -254.545 172.222 1.173
v -127.273 172.222 0.276
v 0.000 172.222 1.405
v 127.273 172.222 1.395
v 254.545 172.222 0.720
v 381.818 172.222 3.772
v 509.091 172.222 2.431
v 636.364 172.222 2.347
v 763.636 172.222 2.589
v 890.909 172.222 2.875
v 1018.182 172.222 2.421
v 1145.455 172.222 2.884
v 1272.727 172.222 3.318
v 1400.000 172.222 3.678
v 1527.273 172.222 2.515
v 1654.545 172.222 2.875
v 1781.818 172.222 3.382
v 1909.091 172.222 3.254
v 2036.364 172.222 3.022
v 2163.636 172.222 4.048
v 2290.909 172.222 3.772
v 2418.182 172.222 3.910
v 2545.455 172.222 4.048
v 2672.727 172.222 1.183
v 2800.000 172.222 0.804
v -2800.000 258.333 1.183
v -2672.727 258.333 1.395
v -2545.455 258.333 0.794
v -2418.182 258.333 0.518
v -2290.909 258.333 0.656
v -2163.636 258.333 0.720
v -2036.364 258.333 0.148
v -1909.091 258.333 0.434
v -1781.818 258.333 0.350
v -1654.545 258.333 0.000
v -1527.273 258.333 0.138
v -1400.000 258.333 0.276
v -1272.727 258.333 0.000
v -1145.455 258.333 0.138
v -1018.182 258.333 0.276
v -890.909 258.333 0.000
v -763.636 258.333 0.138
v -636.364 258.333 0.276
v -509.091 258.333 0.000
v -381.818 258.333 1.026
v -254.545 258.333 0.276
v -127.273 258.333 0.074
v 0.000 258.333 1.617
v 127.273 258.333 0.942
v 254.545 258.333 0.592
v 381.818 258.333 3.910
v 509.091 258.333 3.382
v 636.364 258.333 1.849
v 763.636 258.333 1.765
v 890.909 258.333 1.977
v 1018.182 258.333 2.071
v 1145.455 258.333 2.727
v 1272.727 258.333 2.495
v 1400.000 258.333 1.997
v 1527.273 258.333 2.061
v 1654.545 258.333 2.421
v 1781.818 258.333 2.515
v 1909.091 258.333 2.949
v 2036.364 258.333 2.791
v 2163.636 258.333 3.550
v 2290.909 258.333 3.910
v 2418.182 258.333 4.048
v 2545.455 258.333 3.772
v 2672.727 258.333 2.801
v 2800.000 258.333 0.350
v -2800.000 344.444 1.469
v -2672.727 344.444 2.051
v -2545.455 344.444 2.293
v -2418.182 344.444 3.022
v -2290.909 344.444 3.013
v -2163.636 344.444 2.958
v -2036.364 344.444 2.283
v -1909.091 344.444 2.347
v -1781.818 344.444 1.775
v -1654.545 344.444 1.691
v -1527.273 344.444 1.311
v -1400.000 344.444 1.331
v -1272.727 344.444 1.543
v -1145.455 344.444 1.903
v -1018.182 344.444 1.479
v -890.909 344.444 1.321
v -763.636 344.444 1.016
v -636.364 344.444 1.331
v -509.091 344.444 1.321
v -381.818 344.444 1.829
v -254.545 344.444 1.479
v -127.273 344.444 1.765
v 0.000 344.444 2.347
v 127.273 344.444 1.331
v 254.545 344.444 1.469
v 381.818 344.444 3.160
v 509.091 344.444 3.180
v 636.364 344.444 2.431
v 763.636 344.444 1.755
v 890.909 344.444 2.145
v 1018.182 344.444 2.431
v 1145.455 344.444 3.752
v 1272.727 344.444 3.772
v 1400.000 344.444 3.910
v 1527.273 344.444 4.048
v 1654.545 344.444 2.884
v 1781.818 344.444 2.357
v 1909.091 344.444 2.495
v 2036.364 344.444 2.367
v 2163.636 344.444 2.579
v 2290.909 344.444 3.087
v 2418.182 344.444 2.663
v 2545.455 344.444 3.022
v 2672.727 344.444 3.087
v 2800.000 344.444 1.775
v -2800.000 430.556 0.794
v -2672.727 430.556 1.257
v -2545.455 430.556 3.244
v -2418.182 430.556 3.900
v -2290.909 430.556 3.550
v -2163.636 430.556 3.614
v -2036.364 430.556 2.939
v -1909.091 430.556 2.737
v -1781.818 430.556 2.579
v -1654.545 430.556 2.421
v -1527.273 430.556 1.923
v -1400.000 430.556 2.135
v -1272.727 430.556 1.977
v -1145.455 430.556 1.701
v -1018.182 430.556 1.617
v -890.909 430.556 2.199
v -763.636 430.556 0.814
v -636.364 430.556 1.839
v -509.091 430.556 1.829
v -381.818 430.556 1.997
v -254.545 430.556 1.691
v -127.273 430.556 1.164
v 0.000 430.556 1.035
v 127.273 430.556 1.617
v 254.545 430.556 0.794
v 381.818 430.556 1.109
v 509.091 430.556 1.543
v 636.364 430.556 1.977
v 763.636 430.556 1.035
v 890.909 430.556 2.579
v 1018.182 430.556 3.826
v 1145.455 430.556 2.589
v 1272.727 430.556 3.318
v 1400.000 430.556 4.048
v 1527.273 430.556 3.772
v 1654.545 430.556 1.691
v 1781.818 430.556 1.829
v 1909.091 430.556 1.183
v 2036.364 430.556 0.952
v 2163.636 430.556 0.942
v 2290.909 430.556 0.000
v 2418.182 430.556 0.138
v 2545.455 430.556 1.459
v 2672.727 430.556 2.219
v 2800.000 430.556 2.801
v -2800.000 516.667 0.222
v -2672.727 516.667 1.247
v -2545.455 516.667 3.382
v -2418.182 516.667 3.402
v -2290.909 516.667 3.614
v -2163.636 516.667 2.939
v -2036.364 516.667 1.405
v -1909.091 516.667 1.617
v -1781.818 516.667 2.273
v -1654.545 516.667 1.405
v -1527.273 516.667 1.765
v -1400.000 516.667 1.977
v -1272.727 516.667 1.405
v -1145.455 516.667 1.691
v -1018.182 516.667 2.199
v -890.909 516.667 2.367
v -763.636 516.667 1.099
v -636.364 516.667 2.199
v -509.091 516.667 1.035
v -381.818 516.667 1.691
v -254.545 516.667 1.164
v -127.273 516.667 0.592
v 0.000 516.667 0.804
v 127.273 516.667 0.868
v 254.545 516.667 0.000
v 381.818 516.667 1.173
v 509.091 516.667 1.607
v 636.364 516.667 1.553
v 763.636 516.667 1.987
v 890.909 516.667 3.382
v 1018.182 516.667 3.772
v 1145.455 516.667 2.357
v 1272.727 516.667 4.048
v 1400.000 516.667 3.772
v 1527.273 516.667 3.910
v 1654.545 516.667 0.720
v 1781.818 516.667 1.257
v 1909.091 516.667 0.582
v 2036.364 516.667 0.276
v 2163.636 516.667 0.000
v 2290.909 516.667 0.138
v 2418.182 516.667 0.276
v 2545.455 516.667 0.000
v 2672.727 516.667 0.730
v 2800.000 516.667 2.051
v -2800.000 602.778 0.138
v -2672.727 602.778 0.868
v -2545.455 602.778 2.958
v -2418.182 602.778 3.392
v -2290.909 602.778 2.865
v -2163.636 602.778 1.775
v -2036.364 602.778 0.952
v -1909.091 602.778 1.533
v -1781.818 602.778 1.405
v -1654.545 602.778 1.321
v -1527.273 602.778 1.977
v -1400.000 602.778 2.071
v -1272.727 602.778 1.913
v -1145.455 602.778 2.199
v -1018.182 602.778 1.627
v -890.909 602.778 0.804
v -763.636 602.778 0.868
v -636.364 602.778 1.775
v -509.091 602.778 1.247
v -381.818 602.778 1.237
v -254.545 602.778 0.444
v -127.273 602.778 0.656
v 0.000 602.778 0.720
v 127.273 602.778 0.074
v 254.545 602.778 0.138
v 381.818 602.778 1.237
v 509.091 602.778 1.035
v 636.364 602.778 2.949
v 763.636 602.778 4.048
v 890.909 602.778 3.772
v 1018.182 602.778 2.431
v 1145.455 602.778 2.051
v 1272.727 602.778 3.772
v 1400.000 602.778 3.910
v 1527.273 602.778 2.495
v 1654.545 602.778 0.444
v 1781.818 602.778 1.469
v 1909.091 602.778 0.276
v 2036.364 602.778 0.000
v 2163.636 602.778 0.138
v 2290.909 602.778 0.276
v 2418.182 602.778 0.000
v 2545.455 602.778 0.138
v 2672.727 602.778 0.276
v 2800.000 602.778 0.961
v -2800.000 688.889 0.276
v -2672.727 688.889 0.000
v -2545.455 688.889 2.135
v -2418.182 688.889 3.160
v -2290.909 688.889 1.109
v -2163.636 688.889 0.730
v -2036.364 688.889 0.572
v -1909.091 688.889 0.666
v -1781.818 688.889 1.247
v -1654.545 688.889 3.604
v -1527.273 688.889 3.772
v -1400.000 688.889 3.466
v -1272.727 688.889 3.160
v -1145.455 688.889 2.958
v -1018.182 688.889 2.061
v -890.909 688.889 0.794
v -763.636 688.889 0.518
v -636.364 688.889 1.617
v -509.091 688.889 1.164
v -381.818 688.889 0.666
v -254.545 688.889 0.360
v -127.273 688.889 0.498
v 0.000 688.889 0.148
v 127.273 688.889 0.138
v 254.545 688.889 0.276
v 381.818 688.889 0.740
v 509.091 688.889 0.878
v 636.364 688.889 3.752
v 763.636 688.889 3.772
v 890.909 688.889 3.244
v 1018.182 688.889 3.604
v 1145.455 688.889 3.624
v 1272.727 688.889 3.910
v 1400.000 688.889 4.048
v 1527.273 688.889 0.740
v 1654.545 688.889 0.730
v 1781.818 688.889 1.459
v 1909.091 688.889 0.000
v 2036.364 688.889 0.138
v 2163.636 688.889 0.276
v 2290.909 688.889 0.000
v 2418.182 688.889 0.138
v 2545.455 688.889 0.276
v 2672.727 688.889 0.000
v 2800.000 688.889 0.582
v -2800.000 775.000 0.000
v -2672.727 775.000 0.138
v -2545.455 775.000 1.607
v -2418.182 775.000 1.627
v -2290.909 775.000 0.656
v -2163.636 775.000 0.424
v -2036.364 775.000 0.000
v -1909.091 775.000 0.434
v -1781.818 775.000 1.459
v -1654.545 775.000 2.515
v -1527.273 775.000 2.801
v -1400.000 775.000 2.791
v -1272.727 775.000 2.219
v -1145.455 775.000 2.283
v -1018.182 775.000 1.681
v -890.909 775.000 0.666
v -763.636 775.000 0.212
v -636.364 775.000 1.385
v -509.091 775.000 0.370
v -381.818 775.000 0.434
v -254.545 775.000 0.276
v -127.273 775.000 0.074
v 0.000 775.000 0.138
v 127.273 775.000 0.276
v 254.545 775.000 0.000
v 381.818 775.000 0.434
v 509.091 775.000 0.572
v 636.364 775.000 2.293
v 763.636 775.000 1.026
v 890.909 775.000 1.016
v 1018.182 775.000 1.923
v 1145.455 775.000 3.910
v 1272.727 775.000 4.048
v 1400.000 775.000 3.772
v 1527.273 775.000 0.212
v 1654.545 775.000 0.646
v 1781.818 775.000 0.961
v 1909.091 775.000 0.212
v 2036.364 775.000 0.350
v 2163.636 775.000 0.000
v 2290.909 775.000 0.138
v 2418.182 775.000 0.276
v 2545.455 775.000 0.000
v 2672.727 775.000 0.212
v 2800.000 775.000 0.646
vt 0.00000 0.00000
vt 0.02273 0.00000
vt 0.04545 0.00000
vt 0.06818 0.00000
vt 0.09091 0.00000
vt 0.11364 0.00000
vt 0.13636 0.00000
vt 0.15909 0.00000
vt 0.18182 0.00000
vt 0.20455 0.00000
vt 0.22727 0.00000
vt 0.25000 0.00000
vt 0.27273 0.00000
vt 0.29545 0.00000
vt 0.31818 0.00000
vt 0.34091 0.00000
vt 0.36364 0.00000
vt 0.38636 0.00000
vt 0.40909 0.00000
vt 0.43182 0.00000
vt 0.45455 0.00000
vt 0.47727 0.00000
vt 0.50000 0.00000
vt 0.52273 0.00000
vt 0.54545 0.00000
vt 0.56818 0.00000
vt 0.59091 0.00000
vt 0.61364 0.00000
vt 0.63636 0.00000
vt 0.65909 0.00000
vt 0.68182 0.00000
vt 0.70455 0.00000
vt 0.72727 0.00000
vt 0.75000 0.00000
vt 0.77273 0.00000
vt 0.79545 0.00000
vt 0.81818 0.00000
vt 0.84091 0.00000
vt 0.86364 0.00000
vt 0.88636 0.00000
vt 0.90909 0.00000
vt 0.93182 0.00000
vt 0.95455 0.00000
vt 0.97727 0.00000
vt 1.00000 0.00000
vt 0.00000 0.05556
vt 0.02273 0.05556
vt 0.04545 0.05556
vt 0.06818 0.05556
vt 0.09091 0.05556
vt 0.11364 0.05556
vt 0.13636 0.05556
vt 0.15909 0.05556
vt 0.18182 0.05556
vt 0.20455 0.05556
vt 0.22727 0.05556
vt 0.25000 0.05556
vt 0.27273 0.05556
vt 0.29545 0.05556
vt 0.31818 0.05556
vt 0.34091 0.05556
vt 0.36364 0.05556
vt 0.38636 0.05556
vt 0.40909 0.05556
vt 0.43182 0.05556
vt 0.45455 0.05556
vt 0.47727 0.05556
vt 0.50000 0.05556
vt 0.52273 0.05556
vt 0.54545 0.05556
vt 0.56818 0.05556
vt 0.59091 0.05556
vt 0.61364 0.05556
vt 0.63636 0.05556
vt 0.65909 0.05556
vt 0.68182 0.05556
vt 0.70455 0.05556
vt 0.72727 0.05556
vt 0.75000 0.05556
vt 0.77273 0.05556
vt 0.79545 0.05556
vt 0.81818 0.05556
vt 0.84091 0.05556
vt 0.86364 0.05556
vt 0.88636 0.05556
vt 0.90909 0.05556
vt 0.93182 0.05556
vt 0.95455 0.05556
vt 0.97727 0.05556
vt 1.00000 0.05556
vt 0.00000 0.11111
vt 0.02273 0.11111
vt 0.04545 0.11111
vt 0.06818 0.11111
vt 0.09091 0.11111
vt 0.11364 0.11111
vt 0.13636 0.11111
vt 0.15909 0.11111
vt 0.18182 0.11111
vt 0.20455 0.11111
vt 0.22727 0.11111
vt 0.25000 0.11111
vt 0.27273 0.11111
vt 0.29545 0.11111
vt 0.31818 0.11111
vt 0.34091 0.11111
vt 0.36364 0.11111
vt 0.38636 0.11111
vt 0.40909 0.11111
vt 0.43182 0.11111
vt 0.45455 0.11111
vt 0.47727 0.11111
vt 0.50000 0.11111
vt 0.52273 0.11111
vt 0.54545 0.11111
vt 0.56818 0.11111
vt 0.59091 0.11111
vt 0.61364 0.11111
vt 0.63636 0.11111
vt 0.65909 0.11111
vt 0.68182 0.11111
vt 0.70455 0.11111
vt 0.72727 0.11111
vt 0.75000 0.11111
vt 0.77273 0.11111
vt 0.79545 0.11111
vt 0.81818 0.11111
vt 0.84091 0.11111
vt 0.86364 0.11111
vt 0.88636 0.11111
vt 0.90909 0.11111
vt 0.93182 0.11111
vt 0.95455 0.11111
vt 0.97727 0.11111
vt 1.00000 0.11111
vt 0.00000 0.16667
vt 0.02273 0.16667
vt 0.04545 0.16667
vt 0.06818 0.16667
vt 0.09091 0.16667
vt 0.11364 0.16667
vt 0.13636 0.16667
vt 0.15909 0.16667
vt 0.18182 0.16667
vt 0.20455 0.16667
vt 0.22727 0.16667
vt 0.25000 0.16667
vt 0.27273 0.16667
vt 0.29545 0.16667
vt 0.31818 0.16667
vt 0.34091 0.16667
vt 0.36364 0.16667
vt 0.38636 0.16667
vt 0.40909 0.16667
vt 0.43182 0.16667
vt 0.45455 0.16667
vt 0.47727 0.16667
vt 0.50000 0.16667
vt 0.52273 0.16667
vt 0.54545 0.16667
vt 0.56818 0.16667
vt 0.59091 0.16667
vt 0.61364 0.16667
vt 0.63636 0.16667
vt 0.65909 0.16667
vt 0.68182 0.16667
vt 0.70455 0.16667
vt 0.72727 0.16667
vt 0.75000 0.16667
vt 0.77273 0.16667
vt 0.79545 0.16667
vt 0.81818 0.16667
vt 0.84091 0.16667
vt 0.86364 0.16667
vt 0.88636 0.16667
vt 0.90909 0.16667
vt 0.93182 0.16667
vt 0.95455 0.16667
vt 0.97727 0.16667
vt 1.00000 0.16667
vt 0.00000 0.22222
vt 0.02273 0.22222
vt 0.04545 0.22222
vt 0.06818 0.22222
vt 0.09091 0.22222
vt 0.11364 0.22222
vt 0.13636 0.22222
vt 0.15909 0.22222
vt 0.18182 0.22222
vt 0.20455 0.22222
vt 0.22727 0.22222
vt 0.25000 0.22222
vt 0.27273 0.22222
vt 0.29545 0.22222
vt 0.31818 0.22222
vt 0.34091 0.22222
vt 0.36364 0.22222
vt 0.38636 0.22222
vt 0.40909 0.22222
vt 0.43182 0.22222
vt 0.45455 0.22222
vt 0.47727 0.22222
vt 0.50000 0.22222
vt 0.52273 0.22222
vt 0.54545 0.22222
vt 0.56818 0.22222
vt 0.59091 0.22222
vt 0.61364 0.22222
vt 0.63636 0.22222
vt 0.65909 0.22222
vt 0.68182 0.22222
vt 0.70455 0.22222
vt 0.72727 0.22222
vt 0.75000 0.22222
vt 0.77273 0.22222
vt 0.79545 0.22222
vt 0.81818 0.22222
vt 0.84091 0.22222
vt 0.86364 0.22222
vt 0.88636 0.22222
vt 0.90909 0.22222
vt 0.93182 0.22222
vt 0.95455 0.22222
vt 0.97727 0.22222
vt 1.00000 0.22222
vt 0.00000 0.27778
vt 0.02273 0.27778
vt 0.04545 0.27778
vt 0.06818 0.27778
vt 0.09091 0.27778
vt 0.11364 0.27778
vt 0.13636 0.27778
vt 0.15909 0.27778
vt 0.18182 0.27778
vt 0.20455 0.27778
vt 0.22727 0.27778
vt 0.25000 0.27778
vt 0.27273 0.27778
vt 0.29545 0.27778
vt 0.31818 0.27778
vt 0.34091 0.27778
vt 0.36364 0.27778
vt 0.38636 0.27778
vt 0.40909 0.27778
vt 0.43182 0.27778
vt 0.45455 0.27778
vt 0.47727 0.27778
vt 0.50000 0.27778
vt 0.52273 0.27778
vt 0.54545 0.27778
vt 0.56818 0.27778
vt 0.59091 0.27778
vt 0.61364 0.27778
vt 0.63636 0.27778
vt 0.65909 0.27778
vt 0.68182 0.27778
vt 0.70455 0.27778
vt 0.72727 0.27778
vt 0.75000 0.27778
vt 0.77273 0.27778
vt 0.79545 0.27778
vt 0.81818 0.27778
vt 0.84091 0.27778
vt 0.86364 0.27778
vt 0.88636 0.27778
vt 0.90909 0.27778
vt 0.93182 0.27778
vt 0.95455 0.27778
vt 0.97727 0.27778
vt 1.00000 0.27778
vt 0.00000 0.33333
vt 0.02273 0.33333
vt 0.04545 0.33333
vt 0.06818 0.33333
vt 0.09091 0.33333
vt 0.11364 0.33333
vt 0.13636 0.33333
vt 0.15909 0.33333
vt 0.18182 0.33333
vt 0.20455 0.33333
vt 0.22727 0.33333
vt 0.25000 0.33333
vt 0.27273 0.33333
vt 0.29545 0.33333
vt 0.31818 0.33333
vt 0.34091 0.33333
vt 0.36364 0.33333
vt 0.38636 0.33333
vt 0.40909 0.33333
vt 0.43182 0.33333
vt 0.45455 0.33333
vt 0.47727 0.33333
vt 0.50000 0.33333
vt 0.52273 0.33333
vt 0.54545 0.33333
vt 0.56818 0.33333
vt 0.59091 0.33333
vt 0.61364 0.33333
vt 0.63636 0.33333
vt 0.65909 0.33333
vt 0.68182 0.33333
vt 0.70455 0.33333
vt 0.72727 0.33333
vt 0.75000 0.33333
vt 0.77273 0.33333
vt 0.79545 0.33333
vt 0.81818 0.33333
vt 0.84091 0.33333
vt 0.86364 0.33333
vt 0.88636 0.33333
vt 0.90909 0.33333
vt 0.93182 0.33333
vt 0.95455 0.33333
vt 0.97727 0.33333
vt 1.00000 0.33333
vt 0.00000 0.38889
vt 0.02273 0.38889
vt 0.04545 0.38889
vt 0.06818 0.38889
vt 0.09091 0.38889
vt 0.11364 0.38889
vt 0.13636 0.38889
vt 0.15909 0.38889
vt 0.18182 0.38889
vt 0.20455 0.38889
vt 0.22727 0.38889
vt 0.25000 0.38889
vt 0.27273 0.38889
vt 0.29545 0.38889
vt 0.31818 0.38889
vt 0.34091 0.38889
vt 0.36364 0.38889
vt 0.38636 0.38889
vt 0.40909 0.38889
vt 0.43182 0.38889
vt 0.45455 0.38889
vt 0.47727 0.38889
vt 0.50000 0.38889
vt 0.52273 0.38889
vt 0.54545 0.38889
vt 0.56818 0.38889
vt 0.59091 0.38889
vt 0.61364 0.38889
vt 0.63636 0.38889
vt 0.65909 0.38889
vt 0.68182 0.38889
vt 0.70455 0.38889
vt 0.72727 0.38889
vt 0.75000 0.38889
vt 0.77273 0.38889
vt 0.79545 0.38889
vt 0.81818 0.38889
vt 0.84091 0.38889
vt 0.86364 0.38889
vt 0.88636 0.38889
vt 0.90909 0.38889
vt 0.93182 0.38889
vt 0.95455 0.38889
vt 0.97727 0.38889
vt 1.00000 0.38889
vt 0.00000 0.44444
vt 0.02273 0.44444
vt 0.04545 0.44444
vt 0.06818 0.44444
vt 0.09091 0.44444
vt 0.11364 0.44444
vt 0.13636 0.44444
vt 0.15909 0.44444
vt 0.18182 0.44444
vt 0.20455 0.44444
vt 0.22727 0.44444
vt 0.25000 0.44444
vt 0.27273 0.44444
vt 0.29545 0.44444
vt 0.31818 0.44444
vt 0.34091 0.44444
vt 0.36364 0.44444
vt 0.38636 0.44444
vt 0.40909 0.44444
vt 0.43182 0.44444
vt 0.45455 0.44444
vt 0.47727 0.44444
vt 0.50000 0.44444
vt 0.52273 0.44444
vt 0.54545 0.44444
vt 0.56818 0.44444
vt 0.59091 0.44444
vt 0.61364 0.44444
vt 0.63636 0.44444
vt 0.65909 0.44444
vt 0.68182 0.44444
vt 0.70455 0.44444
vt 0.72727 0.44444
vt 0.75000 0.44444
vt 0.77273 0.44444
vt 0.79545 0.44444
vt 0.81818 0.44444
vt 0.84091 0.44444
vt 0.86364 0.44444
vt 0.88636 0.44444
vt 0.90909 0.44444
vt 0.93182 0.44444
vt 0.95455 0.44444
vt 0.97727 0.44444
vt 1.00000 0.44444
vt 0.00000 0.50000
vt 0.02273 0.50000
vt 0.04545 0.50000
vt 0.06818 0.50000
vt 0.09091 0.50000
vt 0.11364 0.50000
vt 0.13636 0.50000
vt 0.15909 0.50000
vt 0.18182 0.50000
vt 0.20455 0.50000
vt 0.22727 0.50000
vt 0.25000 0.50000
vt 0.27273 0.50000
vt 0.29545 0.50000
vt 0.31818 0.50000
vt 0.34091 0.50000
vt 0.36364 0.50000
vt 0.38636 0.50000
vt 0.40909 0.50000
vt 0.43182 0.50000
vt 0.45455 0.50000
vt 0.47727 0.50000
vt 0.50000 0.50000
vt 0.52273 0.50000
vt 0.54545 0.50000
vt 0.56818 0.50000
vt 0.59091 0.50000
vt 0.61364 0.50000
vt 0.63636 0.50000
vt 0.65909 0.50000
vt 0.68182 0.50000
vt 0.70455 0.50000
vt 0.72727 0.50000
vt 0.75000 0.50000
vt 0.77273 0.50000
vt 0.79545 0.50000
vt 0.81818 0.50000
vt 0.84091 0.50000
vt 0.86364 0.50000
vt 0.88636 0.50000
vt 0.90909 0.50000
vt 0.93182 0.50000
vt 0.95455 0.50000
vt 0.97727 0.50000
vt 1.00000 0.50000
vt 0.00000 0.55556
vt 0.02273 0.55556
vt 0.04545 0.55556
vt 0.06818 0.55556
vt 0.09091 0.55556
vt 0.11364 0.55556
vt 0.13636 0.55556
vt 0.15909 0.55556
vt 0.18182 0.55556
vt 0.20455 0.55556
vt 0.22727 0.55556
vt 0.25000 0.55556
vt 0.27273 0.55556
vt 0.29545 0.55556
vt 0.31818 0.55556
vt 0.34091 0.55556
vt 0.36364 0.55556
vt 0.38636 0.55556
vt 0.40909 0.55556
vt 0.43182 0.55556
vt 0.45455 0.55556
vt 0.47727 0.55556
vt 0.50000 0.55556
vt 0.52273 0.55556
vt 0.54545 0.55556
vt 0.56818 0.55556
vt 0.59091 0.55556
vt 0.61364 0.55556
vt 0.63636 0.55556
vt 0.65909 0.55556
vt 0.68182 0.55556
vt 0.70455 0.55556
vt 0.72727 0.55556
vt 0.75000 0.55556
vt 0.77273 0.55556
vt 0.79545 0.55556
vt 0.81818 0.55556
vt 0.84091 0.55556
vt 0.86364 0.55556
vt 0.88636 0.55556
vt 0.90909 0.55556
vt 0.93182 0.55556
vt 0.95455 0.55556
vt 0.97727 0.55556
vt 1.00000 0.55556
vt 0.00000 0.61111
vt 0.02273 0.61111
vt 0.04545 0.61111
vt 0.06818 0.61111
vt 0.09091 0.61111
vt 0.11364 0.61111
vt 0.13636 0.61111
vt 0.15909 0.61111
vt 0.18182 0.61111
vt 0.20455 0.61111
vt 0.22727 0.61111
vt 0.25000 0.61111
vt 0.27273 0.61111
vt 0.29545 0.61111
vt 0.31818 0.61111
vt 0.34091 0.61111
vt 0.36364 0.61111
vt 0.38636 0.61111
vt 0.40909 0.61111
vt 0.43182 0.61111
vt 0.45455 0.61111
vt 0.47727 0.61111
vt 0.50000 0.61111
vt 0.52273 0.61111
vt 0.54545 0.61111
vt 0.56818 0.61111
vt 0.59091 0.61111
vt 0.61364 0.61111
vt 0.63636 0.61111
vt 0.65909 0.61111
vt 0.68182 0.61111
vt 0.70455 0.61111
vt 0.72727 0.61111
vt 0.75000 0.61111
vt 0.77273 0.61111
vt 0.79545 0.61111
vt 0.81818 0.61111
vt 0.84091 0.61111
vt 0.86364 0.61111
vt 0.88636 0.61111
vt 0.90909 0.61111
vt 0.93182 0.61111
vt 0.95455 0.61111
vt 0.97727 0.61111
vt 1.00000 0.61111
vt 0.00000 0.66667
vt 0.02273 0.66667
vt 0.04545 0.66667
vt 0.06818 0.66667
vt 0.09091 0.66667
vt 0.11364 0.66667
vt 0.13636 0.66667
vt 0.15909 0.66667
vt 0.18182 0.66667
vt 0.20455 0.66667
vt 0.22727 0.66667
vt 0.25000 0.66667
vt 0.27273 0.66667
vt 0.29545 0.66667
vt 0.31818 0.66667
vt 0.34091 0.66667
vt 0.36364 0.66667
vt 0.38636 0.66667
vt 0.40909 0.66667
vt 0.43182 0.66667
vt 0.45455 0.66667
vt 0.47727 0.66667
vt 0.50000 0.66667
vt 0.52273 0.66667
vt 0.54545 0.66667
vt 0.56818 0.66667
vt 0.59091 0.66667
vt 0.61364 0.66667
vt 0.63636 0.66667
vt 0.65909 0.66667
vt 0.68182 0.66667
vt 0.70455 0.66667
vt 0.72727 0.66667
vt 0.75000 0.66667
vt 0.77273 0.66667
vt 0.79545 0.66667
vt 0.81818 0.66667
vt 0.84091 0.66667
vt 0.86364 0.66667
vt 0.88636 0.66667
vt 0.90909 0.66667
vt 0.93182 0.66667
vt 0.95455 0.66667
vt 0.97727 0.66667
vt 1.00000 0.66667
vt 0.00000 0.72222
vt 0.02273 0.72222
vt 0.04545 0.72222
vt 0.06818 0.72222
vt 0.09091 0.72222
vt 0.11364 0.72222
vt 0.13636 0.72222
vt 0.15909 0.72222
vt 0.18182 0.72222
vt 0.20455 0.72222
vt 0.22727 0.72222
vt 0.25000 0.72222
vt 0.27273 0.72222
vt 0.29545 0.72222
vt 0.31818 0.72222
vt 0.34091 0.72222
vt 0.36364 0.72222
vt 0.38636 0.72222
vt 0.40909 0.72222
vt 0.43182 0.72222
vt 0.45455 0.72222
vt 0.47727 0.72222
vt 0.50000 0.72222
vt 0.52273 0.72222
vt 0.54545 0.72222
vt 0.56818 0.72222
vt 0.59091 0.72222
vt 0.61364 0.72222
vt 0.63636 0.72222
vt 0.65909 0.72222
vt 0.68182 0.72222
vt 0.70455 0.72222
vt 0.72727 0.72222
vt 0.75000 0.72222
vt 0.77273 0.72222
vt 0.79545 0.72222
vt 0.81818 0.72222
vt 0.84091 0.72222
vt 0.86364 0.72222
vt 0.88636 0.72222
vt 0.90909 0.72222
vt 0.93182 0.72222
vt 0.95455 0.72222
vt 0.97727 0.72222
vt 1.00000 0.72222
vt 0.00000 0.77778
vt 0.02273 0.77778
vt 0.04545 0.77778
vt 0.06818 0.77778
vt 0.09091 0.77778
vt 0.11364 0.77778
vt 0.13636 0.77778
vt 0.15909 0.77778
vt 0.18182 0.77778
vt 0.20455 0.77778
vt 0.22727 0.77778
vt 0.25000 0.77778
vt 0.27273 0.77778
vt 0.29545 0.77778
vt 0.31818 0.77778
vt 0.34091 0.77778
vt 0.36364 0.77778
vt 0.38636 0.77778
vt 0.40909 0.77778
vt 0.43182 0.77778
vt 0.45455 0.77778
vt 0.47727 0.77778
vt 0.50000 0.77778
vt 0.52273 0.77778
vt 0.54545 0.77778
vt 0.56818 0.77778
vt 0.59091 0.77778
vt 0.61364 0.77778
vt 0.63636 0.77778
vt 0.65909 0.77778
vt 0.68182 0.77778
vt 0.70455 0.77778
vt 0.72727 0.77778
vt 0.75000 0.77778
vt 0.77273 0.77778
vt 0.79545 0.77778
vt 0.81818 0.77778
vt 0.84091 0.77778
vt 0.86364 0.77778
vt 0.88636 0.77778
vt 0.90909 0.77778
vt 0.93182 0.77778
vt 0.95455 0.77778
vt 0.97727 0.77778
vt 1.00000 0.77778
vt 0.00000 0.83333
vt 0.02273 0.83333
vt 0.04545 0.83333
vt 0.06818 0.83333
vt 0.09091 0.83333
vt 0.11364 0.83333
vt 0.13636 0.83333
vt 0.15909 0.83333
vt 0.18182 0.83333
vt 0.20455 0.83333
vt 0.22727 0.83333
vt 0.25000 0.83333
vt 0.27273 0.83333
vt 0.29545 0.83333
vt 0.31818 0.83333
vt 0.34091 0.83333
vt 0.36364 0.83333
vt 0.38636 0.83333
vt 0.40909 0.83333
vt 0.43182 0.83333
vt 0.45455 0.83333
vt 0.47727 0.83333
vt 0.50000 0.83333
vt 0.52273 0.83333
vt 0.54545 0.83333
vt 0.56818 0.83333
vt 0.59091 0.83333
vt 0.61364 0.83333
vt 0.63636 0.83333
vt 0.65909 0.83333
vt 0.68182 0.83333
vt 0.70455 0.83333
vt 0.72727 0.83333
vt 0.75000 0.83333
vt 0.77273 0.83333
vt 0.79545 0.83333
vt 0.81818 0.83333
vt 0.84091 0.83333
vt 0.86364 0.83333
vt 0.88636 0.83333
vt 0.90909 0.83333
vt 0.93182 0.83333
vt 0.95455 0.83333
vt 0.97727 0.83333
vt 1.00000 0.83333
vt 0.00000 0.88889
vt 0.02273 0.88889
vt 0.04545 0.88889
vt 0.06818 0.88889
vt 0.09091 0.88889
vt 0.11364 0.88889
vt 0.13636 0.88889
vt 0.15909 0.88889
vt 0.18182 0.88889
vt 0.20455 0.88889
vt 0.22727 0.88889
vt 0.25000 0.88889
vt 0.27273 0.88889
vt 0.29545 0.88889
vt 0.31818 0.88889
vt 0.34091 0.88889
vt 0.36364 0.88889
vt 0.38636 0.88889
vt 0.40909 0.88889
vt 0.43182 0.88889
vt 0.45455 0.88889
vt 0.47727 0.88889
vt 0.50000 0.88889
vt 0.52273 0.88889
vt 0.54545 0.88889
vt 0.56818 0.88889
vt 0.59091 0.88889
vt 0.61364 0.88889
vt 0.63636 0.88889
vt 0.65909 0.88889
vt 0.68182 0.88889
vt 0.70455 0.88889
vt 0.72727 0.88889
vt 0.75000 0.88889
vt 0.77273 0.88889
vt 0.79545 0.88889
vt 0.81818 0.88889
vt 0.84091 0.88889
vt 0.86364 0.88889
vt 0.88636 0.88889
vt 0.90909 0.88889
vt 0.93182 0.88889
vt 0.95455 0.88889
vt 0.97727 0.88889
vt 1.00000 0.88889
vt 0.00000 0.94444
vt 0.02273 0.94444
vt 0.04545 0.94444
vt 0.06818 0.94444
vt 0.09091 0.94444
vt 0.11364 0.94444
vt 0.13636 0.94444
vt 0.15909 0.94444
vt 0.18182 0.94444
vt 0.20455 0.94444
vt 0.22727 0.94444
vt 0.25000 0.94444
vt 0.27273 0.94444
vt 0.29545 0.94444
vt 0.31818 0.94444
vt 0.34091 0.94444
vt 0.36364 0.94444
vt 0.38636 0.94444
vt 0.40909 0.94444
vt 0.43182 0.94444
vt 0.45455 0.94444
vt 0.47727 0.94444
vt 0.50000 0.94444
vt 0.52273 0.94444
vt 0.54545 0.94444
vt 0.56818 0.94444
vt 0.59091 0.94444
vt 0.61364 0.94444
vt 0.63636 0.94444
vt 0.65909 0.94444
vt 0.68182 0.94444
vt 0.70455 0.94444
vt 0.72727 0.94444
vt 0.75000 0.94444
vt 0.77273 0.94444
vt 0.79545 0.94444
vt 0.81818 0.94444
vt 0.84091 0.94444
vt 0.86364 0.94444
vt 0.88636 0.94444
vt 0.90909 0.94444
vt 0.93182 0.94444
vt 0.95455 0.94444
vt 0.97727 0.94444
vt 1.00000 0.94444
vt 0.00000 1.00000
vt 0.02273 1.00000
vt 0.04545 1.00000
vt 0.06818 1.00000
vt 0.09091 1.00000
vt 0.11364 1.00000
vt 0.13636 1.00000
vt 0.15909 1.00000
vt 0.18182 1.00000
vt 0.20455 1.00000
vt 0.22727 1.00000
vt 0.25000 1.00000
vt 0.27273 1.00000
vt 0.29545 1.00000
vt 0.31818 1.00000
vt 0.34091 1.00000
vt 0.36364 1.00000
vt 0.38636 1.00000
vt 0.40909 1.00000
vt 0.43182 1.00000
vt 0.45455 1.00000
vt 0.47727 1.00000
vt 0.50000 1.00000
vt 0.52273 1.00000
vt 0.54545 1.00000
vt 0.56818 1.00000
vt 0.59091 1.00000
vt 0.61364 1.00000
vt 0.63636 1.00000
vt 0.65909 1.00000
vt 0.68182 1.00000
vt 0.70455 1.00000
vt 0.72727 1.00000
vt 0.75000 1.00000
vt 0.77273 1.00000
vt 0.79545 1.00000
vt 0.81818 1.00000
vt 0.84091 1.00000
vt 0.86364 1.00000
vt 0.88636 1.00000
vt 0.90909 1.00000
vt 0.93182 1.00000
vt 0.95455 1.00000
vt 0.97727 1.00000
vt 1.00000 1.00000
f 1/1 2/2 47/47 46/46
f 2/2 3/3 48/48 47/47
f 3/3 4/4 49/49 48/48
f 4/4 5/5 50/50 49/49
f 5/5 6/6 51/51 50/50
f 6/6 7/7 52/52 51/51
f 7/7 8/8 53/53 52/52
f 8/8 9/9 54/54 53/53
f 9/9 10/10 55/55 54/54
f 10/10 11/11 56/56 55/55
f 11/11 12/12 57/57 56/56
f 12/12 13/13 58/58 57/57
f 13/13 14/14 59/59 58/58
f 14/14 15/15 60/60 59/59
f 15/15 16/16 61/61 60/60
f 16/16 17/17 62/62 61/61
f 17/17 18/18 63/63 62/62
f 18/18 19/19 64/64 63/63
f 19/19 20/20 65/65 64/64
f 20/20 21/21 66/66 65/65
f 21/21 22/22 67/67 66/66
f 22/22 23/23 68/68 67/67
f 23/23 24/24 69/69 68/68
f 24/24 25/25 70/70 69/69
f 25/25 26/26 71/71 70/70
f 26/26 27/27 72/72 71/71
f 27/27 28/28 73/73 72/72
f 28/28 29/29 74/74 73/73
f 29/29 30/30 75/75 74/74
f 30/30 31/31 76/76 75/75
f 31/31 32/32 77/77 76/76
f 32/32 33/33 78/78 77/77
f 33/33 34/34 79/79 78/78
f 34/34 35/35 80/80 79/79
f 35/35 36/36 81/81 80/80
f 36/36 37/37 82/82 81/81
f 37/37 38/38 83/83 82/82
f 38/38 39/39 84/84 83/83
f 39/39 40/40 85/85 84/84
f 40/40 41/41 86/86 85/85
f 41/41 42/42 87/87 86/86
f 42/42 43/43 88/88 87/87
f 43/43 44/44 89/89 88/88
f 44/44 45/45 90/90 89/89
f 46/46 47/47 92/92 91/91
f 47/47 48/48 93/93 92/92
f 48/48 49/49 94/94 93/93
f 49/49 50/50 95/95 94/94
f 50/50 51/51 96/96 95/95
f 51/51 52/52 97/97 96/96
f 52/52 53/53 98/98 97/97
f 53/53 54/54 99/99 98/98
f 54/54 55/55 100/100 99/99
f 55/55 56/56 101/101 100/100
f 56/56 57/57 102/102 101/101
f 57/57 58/58 103/103 102/102
f 58/58 59/59 104/104 103/103
f 59/59 60/60 105/105 104/104
f 60/60 61/61 106/106 105/105
f 61/61 62/62 107/107 106/106
f 62/62 63/63 108/108 107/107
f 63/63 64/64 109/109 108/108
f 64/64 65/65 110/110 109/109
f 65/65 66/66 111/111 110/110
f 66/66 67/67 112/112 111/111
f 67/67 68/68 113/113 112/112
f 68/68 69/69 114/114 113/113
f 69/69 70/70 115/115 114/114
f 70/70 71/71 116/116 115/115
f 71/71 72/72 117/117 116/116
f 72/72 73/73 118/118 117/117
f 73/73 74/74 119/119 118/118
f 74/74 75/75 120/120 119/119
f 75/75 76/76 121/121 120/120
f 76/76 77/77 122/122 121/121
f 77/77 78/78 123/123 122/122
f 78/78 79/79 124/124 123/123
f 79/79 80/80 125/125 124/124
f 80/80 81/81 126/126 125/125
f 81/81 82/82 127/127 126/126
f 82/82 83/83 128/128 127/127
f 83/83 84/84 129/129 128/128
f 84/84 85/85 130/130 129/129
f 85/85 86/86 131/131 130/130
f 86/86 87/87 132/132 131/131
f 87/87 88/88 133/133 132/132
f 88/88 89/89 134/134 133/133
f 89/89 90/90 135/135 134/134
f 91/91 92/92 137/137 136/136
f 92/92 93/93 138/138 137/137
f 93/93 94/94 139/139 138/138
f 94/94 95/95 140/140 139/139
f 95/95 96/96 141/141 140/140
f 96/96 97/97 142/142 141/141
f 97/97 98/98 143/143 142/142
f 98/98 99/99 144/144 143/143
f 99/99 100/100 145/145 144/144
f 100/100 101/101 146/146 145/145
f 101/101 102/102 147/147 146/146
f 102/102 103/103 148/148 147/147
f 103/103 104/104 149/149 148/148
f 104/104 105/105 150/150 149/149
f 105/105 106/106 151/151 150/150
f 106/106 107/107 152/152 151/151
f 107/107 108/108 153/153 152/152
f 108/108 109/109 154/154 153/153
f 109/109 110/110 155/155 154/154
f 110/110 111/111 156/156 155/155
f 111/111 112/112 157/157 156/156
f 112/112 113/113 158/158 157/157
f 113/113 114/114 159/159 158/158
f 114/114 115/115 160/160 159/159
f 115/115 116/116 161/161 160/160
f 116/116 117/117 162/162 161/161
f 117/117 118/118 163/163 162/162
f 118/118 119/119 164/164 163/163
f 119/119 120/120 165/165 164/164
f 120/120 121/121 166/166 165/165
f 121/121 122/122 167/167 166/166
f 122/122 123/123 168/168 167/167
f 123/123 124/124 169/169 168/168
f 124/124 125/125 170/170 169/169
f 125/125 126/126 171/171 170/170
f 126/126 127/127 172/172 171/171
f 127/127 128/128 173/173 172/172
f 128/128 129/129 174/174 173/173
f 129/129 130/130 175/175 174/174
f 130/130 131/131 176/176 175/175
f 131/131 132/132 177/177 176/176
f 132/132 133/133 178/178 177/177
f 133/133 134/134 179/179 178/178
f 134/134 135/135 180/180 179/179
f 136/136 137/137 182/182 181/181
f 137/137 138/138 183/183 182/182
f 138/138 139/139 184/184 183/183
f 139/139 140/140 185/185 184/184
f 140/140 141/141 186/186 185/185
f 141/141 142/142 187/187 186/186
f 142/142 143/143 188/188 187/187
f 143/143 144/144 189/189 188/188
f 144/144 145/145 190/190 189/189
f 145/145 146/146 191/191 190/190
f 146/146 147/147 192/192 191/191
f 147/147 148/148 193/193 192/192
f 148/148 149/149 194/194 193/193
f 149/149 150/150 195/195 194/194
f 150/150 151/151 196/196 195/195
f 151/151 152/152 197/197 196/196
f 152/152 153/153 198/198 197/197
f 153/153 154/154 199/199 198/198
f 154/154 155/155 200/200 199/199
f 155/155 156/156 201/201 200/200
f 156/156 157/157 202/202 201/201
f 157/157 158/158 203/203 202/202
f 158/158 159/159 204/204 203/203
f 159/159 160/160 205/205 204/204
f 160/160 161/161 206/206 205/205
f 161/161 162/162 207/207 206/206
f 162/162 163/163 208/208 207/207
f 163/163 164/164 209/209 208/208
f 164/164 165/165 210/210 209/209
f 165/165 166/166 211/211 210/210
f 166/166 167/167 212/212 211/211
f 167/167 168/168 213/213 212/212
f 168/168 169/169 214/214 213/213
f 169/169 170/170 215/215 214/214
f 170/170 171/171 216/216 215/215
f 171/171 172/172 217/217 216/216
f 172/172 173/173 218/218 217/217
f 173/173 174/174 219/219 218/218
f 174/174 175/175 220/220 219/219
f 175/175 176/176 221/221 220/220
f 176/176 177/177 222/222 221/221
f 177/177 178/178 223/223 222/222
f 178/178 179/179 224/224 223/223
f 179/179 180/180 225/225 224/224
f 181/181 182/182 227/227 226/226
f 182/182 183/183 228/228 227/227
f 183/183 184/184 229/229 228/228
f 184/184 185/185 230/230 229/229
f 185/185 186/186 231/231 230/230
f 186/186 187/187 232/232 231/231
f 187/187 188/188 233/233 232/232
f 188/188 189/189 234/234 233/233
f 189/189 190/190 235/235 234/234
f 190/190 191/191 236/236 235/235
f 191/191 192/192 237/237 236/236
f 192/192 193/193 238/238 237/237
f 193/193 194/194 239/239 238/238
f 194/194 195/195 240/240 239/239
f 195/195 196/196 241/241 240/240
f 196/196 197/197 242/242 241/241
f 197/197 198/198 243/243 242/242
f 198/198 199/199 244/244 243/243
f 199/199 200/200 245/245 244/244
f 200/200 201/201 246/246 245/245
f 201/201 202/202 247/247 246/246
f 202/202 203/203 248/248 247/247
f 203/203 204/204 249/249 248/248
f 204/204 205/205 250/250 249/249
f 205/205 206/206 251/251 250/250
f 206/206 207/207 252/252 251/251
f 207/207 208/208 253/253 252/252
f 208/208 209/209 254/254 253/253
f 209/209 210/210 255/255 254/254
f 210/210 211/211 256/256 255/255
f 211/211 212/212 257/257 256/256
f 212/212 213/213 258/258 257/257
f 213/213 214/214 259/259 258/258
f 214/214 215/215 260/260 259/259
f 215/215 216/216 261/261 260/260
f 216/216 217/217 262/262 261/261
f 217/217 218/218 263/263 262/262
f 218/218 219/219 264/264 263/263
f 219/219 220/220 265/265 264/264
f 220/220 221/221 266/266 265/265
f 221/221 222/222 267/267 266/266
f 222/222 223/223 268/268 267/267
f 223/223 224/224 269/269 268/268
f 224/224 225/225 270/270 269/269
f 226/226 227/227 272/272 271/271
f 227/227 228/228 273/273 272/272
f 228/228 229/229 274/274 273/273
f 229/229 230/230 275/275 274/274
f 230/230 231/231 276/276 275/275
f 231/231 232/232 277/277 276/276
f 232/232 233/233 278/278 277/277
f 233/233 234/234 279/279 278/278
f 234/234 235/235 280/280 279/279
f 235/235 236/236 281/281 280/280
f 236/236 237/237 282/282 281/281
f 237/237 238/238 283/283 282/282
f 238/238 239/239 284/284 283/283
f 239/239 240/240 285/285 284/284
f 240/240 241/241 286/286 285/285
f 241/241 242/242 287/287 286/286
f 242/242 243/243 288/288 287/287
f 243/243 244/244 289/289 288/288
f 244/244 245/245 290/290 289/289
f 245/245 246/246 291/291 290/290
f 246/246 247/247 292/292 291/291
f 247/247 248/248 293/293 292/292
f 248/248 249/249 294/294 293/293
f 249/249 250/250 295/295 294/294
f 250/250 251/251 296/296 295/295
f 251/251 252/252 297/297 296/296
f 252/252 253/253 298/298 297/297
f 253/253 254/254 299/299 298/298
f 254/254 255/255 300/300 299/299
f 255/255 256/256 301/301 300/300
f 256/256 257/257 302/302 301/301
f 257/257 258/258 303/303 302/302
f 258/258 259/259 304/304 303/303
f 259/259 260/260 305/305 304/304
f 260/260 261/261 306/306 305/305
f 261/261 262/262 307/307 306/306
f 262/262 263/263 308/308 307/307
f 263/263 264/264 309/309 308/308
f 264/264 265/265 310/310 309/309
f 265/265 266/266 311/311 310/310
f 266/266 267/267 312/312 311/311
f 267/267 268/268 313/313 312/312
f 268/268 269/269 314/314 313/313
f 269/269 270/270 315/315 314/314
f 271/271 272/272 317/317 316/316
f 272/272 273/273 318/318 317/317
f 273/273 274/274 319/319 318/318
f 274/274 275/275 320/320 319/319
f 275/275 276/276 321/321 320/320
f 276/276 277/277 322/322 321/321
f 277/277 278/278 323/323 322/322
f 278/278 279/279 324/324 323/323
f 279/279 280/280 325/325 324/324
f 280/280 281/281 326/326 325/325
f 281/281 282/282 327/327 326/326
f 282/282 283/283 328/328 327/327
f 283/283 284/284 329/329 328/328
f 284/284 285/285 330/330 329/329
f 285/285 286/286 331/331 330/330
f 286/286 287/287 332/332 331/331
f 287/287 288/288 333/333 332/332
f 288/288 289/289 334/334 333/333
f 289/289 290/290 335/335 334/334
f 290/290 291/291 336/336 335/335
f 291/291 292/292 337/337 336/336
f 292/292 293/293 338/338 337/337
f 293/293 294/294 339/339 338/338
f 294/294 295/295 340/340 339/339
f 295/295 296/296 341/341 340/340
f 296/296 297/297 342/342 341/341
f 297/297 298/298 343/343 342/342
f 298/298 299/299 344/344 343/343
f 299/299 300/300 345/345 344/344
f 300/300 301/301 346/346 345/345
f 301/301 302/302 347/347 346/346
f 302/302 303/303 348/348 347/347
f 303/303 304/304 349/349 348/348
f 304/304 305/305 350/350 349/349
f 305/305 306/306 351/351 350/350
f 306/306 307/307 352/352 351/351
f 307/307 308/308 353/353 352/352
f 308/308 309/309 354/354 353/353
f 309/309 310/310 355/355 354/354
f 310/310 311/311 356/356 355/355
f 311/311 312/312 357/357 356/356
f 312/312 313/313 358/358 357/357
f 313/313 314/314 359/359 358/358
f 314/314 315/315 360/360 359/359
f 316/316 317/317 362/362 361/361
f 317/317 318/318 363/363 362/362
f 318/318 319/319 364/364 363/363
f 319/319 320/320 365/365 364/364
f 320/320 321/321 366/366 365/365
f 321/321 322/322 367/367 366/366
f 322/322 323/323 368/368 367/367
f 323/323 324/324 369/369 368/368
f 324/324 325/325 370/370 369/369
f 325/325 326/326 371/371 370/370
f 326/326 327/327 372/372 371/371
f 327/327 328/328 373/373 372/372
f 328/328 329/329 374/374 373/373
f 329/329 330/330 375/375 374/374
f 330/330 331/331 376/376 375/375
f 331/331 332/332 377/377 376/376
f 332/332 333/333 378/378 377/377
f 333/333 334/334 379/379 378/378
f 334/334 335/335 380/380 379/379
f 335/335 336/336 381/381 380/380
f 336/336 337/337 382/382 381/381
f 337/337 338/338 383/383 382/382
f 338/338 339/339 384/384 383/383
f 339/339 340/340 385/385 384/384
f 340/340 341/341 386/386 385/385
f 341/341 342/342 387/387 386/386
f 342/342 343/343 388/388 387/387
f 343/343 344/344 389/389 388/388
f 344/344 345/345 390/390 389/389
f 345/345 346/346 391/391 390/390
f 346/346 347/347 392/392 391/391
f 347/347 348/348 393/393 392/392
f 348/348 349/349 394/394 393/393
f 349/349 350/350 395/395 394/394
f 350/350 351/351 396/396 395/395
f 351/351 352/352 397/397 396/396
f 352/352 353/353 398/398 397/397
f 353/353 354/354 399/399 398/398
f 354/354 355/355 400/400 399/399
f 355/355 356/356 401/401 400/400
f 356/356 357/357 402/402 401/401
f 357/357 358/358 403/403 402/402
f 358/358 359/359 404/404 403/403
f 359/359 360/360 405/405 404/404
f 361/361 362/362 407/407 406/406
f 362/362 363/363 408/408 407/407
f 363/363 364/364 409/409 408/408
f 364/364 365/365 410/410 409/409
f 365/365 366/366 411/411 410/410
f 366/366 367/367 412/412 411/411
f 367/367 368/368 413/413 412/412
f 368/368 369/369 414/414 413/413
f 369/369 370/370 415/415 414/414
f 370/370 371/371 416/416 415/415
f 371/371 372/372 417/417 416/416
f 372/372 373/373 418/418 417/417
f 373/373 374/374 419/419 418/418
f 374/374 375/375 420/420 419/419
f 375/375 376/376 421/421 420/420
f 376/376 377/377 422/422 421/421
f 377/377 378/378 423/423 422/422
f 378/378 379/379 424/424 423/423
f 379/379 380/380 425/425 424/424
f 380/380 381/381 426/426 425/425
f 381/381 382/382 427/427 426/426
f 382/382 383/383 428/428 427/427
f 383/383 384/384 429/429 428/428
f 384/384 385/385 430/430 429/429
f 385/385 386/386 431/431 430/430
f 386/386 387/387 432/432 431/431
f 387/387 388/388 433/433 432/432
f 388/388 389/389 434/434 433/433
f 389/389 390/390 435/435 434/434
f 390/390 391/391 436/436 435/435
f 391/391 392/392 437/437 436/436
f 392/392 393/393 438/438 437/437
f 393/393 394/394 439/439 438/438
f 394/394 395/395 440/440 439/439
f 395/395 396/396 441/441 440/440
f 396/396 397/397 442/442 441/441
f 397/397 398/398 443/443 442/442
f 398/398 399/399 444/444 443/443
f 399/399 400/400 445/445 444/444
f 400/400 401/401 446/446 445/445
f 401/401 402/402 447/447 446/446
f 402/402 403/403 448/448 447/447
f 403/403 404/404 449/449 448/448
f 404/404 405/405 450/450 449/449
f 406/406 407/407 452/452 451/451
f 407/407 408/408 453/453 452/452
f 408/408 409/409 454/454 453/453
f 409/409 410/410 455/455 454/454
f 410/410 411/411 456/456 455/455
f 411/411 412/412 457/457 456/456
f 412/412 413/413 458/458 457/457
f 413/413 414/414 459/459 458/458
f 414/414 415/415 460/460 459/459
f 415/415 416/416 461/461 460/460
f 416/416 417/417 462/462 461/461
f 417/417 418/418 463/463 462/462
f 418/418 419/419 464/464 463/463
f 419/419 420/420 465/465 464/464
f 420/420 421/421 466/466 465/465
f 421/421 422/422 467/467 466/466
f 422/422 423/423 468/468 467/467
f 423/423 424/424 469/469 468/468
f 424/424 425/425 470/470 469/469
f 425/425 426/426 471/471 470/470
f 426/426 427/427 472/472 471/471
f 427/427 428/428 473/473 472/472
f 428/428 429/429 474/474 473/473
f 429/429 430/430 475/475 474/474
f 430/430 431/431 476/476 475/475
f 431/431 432/432 477/477 476/476
f 432/432 433/433 478/478 477/477
f 433/433 434/434 479/479 478/478
f 434/434 435/435 480/480 479/479
f 435/435 436/436 481/481 480/480
f 436/436 437/437 482/482 481/481
f 437/437 438/438 483/483 482/482
f 438/438 439/439 484/484 483/483
f 439/439 440/440 485/485 484/484
f 440/440 441/441 486/486 485/485
f 441/441 442/442 487/487 486/486
f 442/442 443/443 488/488 487/487
f 443/443 444/444 489/489 488/488
f 444/444 445/445 490/490 489/489
f 445/445 446/446 491/491 490/490
f 446/446 447/447 492/492 491/491
f 447/447 448/448 493/493 492/492
f 448/448 449/449 494/494 493/493
f 449/449 450/450 495/495 494/494
f 451/451 452/452 497/497 496/496
f 452/452 453/453 498/498 497/497
f 453/453 454/454 499/499 498/498
f 454/454 455/455 500/500 499/499
f 455/455 456/456 501/501 500/500
f 456/456 457/457 502/502 501/501
f 457/457 458/458 503/503 502/502
f 458/458 459/459 504/504 503/503
f 459/459 460/460 505/505 504/504
f 460/460 461/461 506/506 505/505
f 461/461 462/462 507/507 506/506
f 462/462 463/463 508/508 507/507
f 463/463 464/464 509/509 508/508
f 464/464 465/465 510/510 509/509
f 465/465 466/466 511/511 510/510
f 466/466 467/467 512/512 511/511
f 467/467 468/468 513/513 512/512
f 468/468 469/469 514/514 513/513
f 469/469 470/470 515/515 514/514
f 470/470 471/471 516/516 515/515
f 471/471 472/472 517/517 516/516
f 472/472 473/473 518/518 517/517
f 473/473 474/474 519/519 518/518
f 474/474 475/475 520/520 519/519
f 475/475 476/476 521/521 520/520
f 476/476 477/477 522/522 521/521
f 477/477 478/478 523/523 522/522
f 478/478 479/479 524/524 523/523
f 479/479 480/480 525/525 524/524
f 480/480 481/481 526/526 525/525
f 481/481 482/482 527/527 526/526
f 482/482 483/483 528/528 527/527
f 483/483 484/484 529/529 528/528
f 484/484 485/485 530/530 529/529
f 485/485 486/486 531/531 530/530
f 486/486 487/487 532/532 531/531
f 487/487 488/488 533/533 532/532
f 488/488 489/489 534/534 533/533
f 489/489 490/490 535/535 534/534
f 490/490 491/491 536/536 535/535
f 491/491 492/492 537/537 536/536
f 492/492 493/493 538/538 537/537
f 493/493 494/494 539/539 538/538
f 494/494 495/495 540/540 539/539
f 496/496 497/497 542/542 541/541
f 497/497 498/498 543/543 542/542
f 498/498 499/499 544/544 543/543
f 499/499 500/500 545/545 544/544
f 500/500 501/501 546/546 545/545
f 501/501 502/502 547/547 546/546
f 502/502 503/503 548/548 547/547
f 503/503 504/504 549/549 548/548
f 504/504 505/505 550/550 549/549
f 505/505 506/506 551/551 550/550
f 506/506 507/507 552/552 551/551
f 507/507 508/508 553/553 552/552
f 508/508 509/509 554/554 553/553
f 509/509 510/510 555/555 554/554
f 510/510 511/511 556/556 555/555
f 511/511 512/512 557/557 556/556
f 512/512 513/513 558/558 557/557
f 513/513 514/514 559/559 558/558
f 514/514 515/515 560/560 559/559
f 515/515 516/516 561/561 560/560
f 516/516 517/517 562/562 561/561
f 517/517 518/518 563/563 562/562
f 518/518 519/519 564/564 563/563
f 519/519 520/520 565/565 564/564
f 520/520 521/521 566/566 565/565
f 521/521 522/522 567/567 566/566
f 522/522 523/523 568/568 567/567
f 523/523 524/524 569/569 568/568
f 524/524 525/525 570/570 569/569
f 525/525 526/526 571/571 570/570
f 526/526 527/527 572/572 571/571
f 527/527 528/528 573/573 572/572
f 528/528 529/529 574/574 573/573
f 529/529 530/530 575/575 574/574
f 530/530 531/531 576/576 575/575
f 531/531 532/532 577/577 576/576
f 532/532 533/533 578/578 577/577
f 533/533 534/534 579/579 578/578
f 534/534 535/535 580/580 579/579
f 535/535 536/536 581/581 580/580
f 536/536 537/537 582/582 581/581
f 537/537 538/538 583/583 582/582
f 538/538 539/539 584/584 583/583
f 539/539 540/540 585/585 584/584
f 541/541 542/542 587/587 586/586
f 542/542 543/543 588/588 587/587
f 543/543 544/544 589/589 588/588
f 544/544 545/545 590/590 589/589
f 545/545 546/546 591/591 590/590
f 546/546 547/547 592/592 591/591
f 547/547 548/548 593/593 592/592
f 548/548 549/549 594/594 593/593
f 549/549 550/550 595/595 594/594
f 550/550 551/551 596/596 595/595
f 551/551 552/552 597/597 596/596
f 552/552 553/553 598/598 597/597
f 553/553 554/554 599/599 598/598
f 554/554 555/555 600/600 599/599
f 555/555 556/556 601/601 600/600
f 556/556 557/557 602/602 601/601
f 557/557 558/558 603/603 602/602
f 558/558 559/559 604/604 603/603
f 559/559 560/560 605/605 604/604
f 560/560 561/561 606/606 605/605
f 561/561 562/562 607/607 606/606
f 562/562 563/563 608/608 607/607
f 563/563 564/564 609/609 608/608
f 564/564 565/565 610/610 609/609
f 565/565 566/566 611/611 610/610
f 566/566 567/567 612/612 611/611
f 567/567 568/568 613/613 612/612
f 568/568 569/569 614/614 613/613
f 569/569 570/570 615/615 614/614
f 570/570 571/571 616/616 615/615
f 571/571 572/572 617/617 616/616
f 572/572 573/573 618/618 617/617
f 573/573 574/574 619/619 618/618
f 574/574 575/575 620/620 619/619
f 575/575 576/576 621/621 620/620
f 576/576 577/577 622/622 621/621
f 577/577 578/578 623/623 622/622
f 578/578 579/579 624/624 623/623
f 579/579 580/580 625/625 624/624
f 580/580 581/581 626/626 625/625
f 581/581 582/582 627/627 626/626
f 582/582 583/583 628/628 627/627
f 583/583 584/584 629/629 628/628
f 584/584 585/585 630/630 629/629
f 586/586 587/587 632/632 631/631
f 587/587 588/588 633/633 632/632
f 588/588 589/589 634/634 633/633
f 589/589 590/590 635/635 634/634
f 590/590 591/591 636/636 635/635
f 591/591 592/592 637/637 636/636
f 592/592 593/593 638/638 637/637
f 593/593 594/594 639/639 638/638
f 594/594 595/595 640/640 639/639
f 595/595 596/596 641/641 640/640
f 596/596 597/597 642/642 641/641
f 597/597 598/598 643/643 642/642
f 598/598 599/599 644/644 643/643
f 599/599 600/600 645/645 644/644
f 600/600 601/601 646/646 645/645
f 601/601 602/602 647/647 646/646
f 602/602 603/603 648/648 647/647
f 603/603 604/604 649/649 648/648
f 604/604 605/605 650/650 649/649
f 605/605 606/606 651/651 650/650
f 606/606 607/607 652/652 651/651
f 607/607 608/608 653/653 652/652
f 608/608 609/609 654/654 653/653
f 609/609 610/610 655/655 654/654
f 610/610 611/611 656/656 655/655
f 611/611 612/612 657/657 656/656
f 612/612 613/613 658/658 657/657
f 613/613 614/614 659/659 658/658
f 614/614 615/615 660/660 659/659
f 615/615 616/616 661/661 660/660
f 616/616 617/617 662/662 661/661
f 617/617 618/618 663/663 662/662
f 618/618 619/619 664/664 663/663
f 619/619 620/620 665/665 664/664
f 620/620 621/621 666/666 665/665
f 621/621 622/622 667/667 666/666
f 622/622 623/623 668/668 667/667
f 623/623 624/624 669/669 668/668
f 624/624 625/625 670/670 669/669
f 625/625 626/626 671/671 670/670
f 626/626 627/627 672/672 671/671
f 627/627 628/628 673/673 672/672
f 628/628 629/629 674/674 673/673
f 629/629 630/630 675/675 674/674
f 631/631 632/632 677/677 676/676
f 632/632 633/633 678/678 677/677
f 633/633 634/634 679/679 678/678
f 634/634 635/635 680/680 679/679
f 635/635 636/636 681/681 680/680
f 636/636 637/637 682/682 681/681
f 637/637 638/638 683/683 682/682
f 638/638 639/639 684/684 683/683
f 639/639 640/640 685/685 684/684
f 640/640 641/641 686/686 685/685
f 641/641 642/642 687/687 686/686
f 642/642 643/643 688/688 687/687
f 643/643 644/644 689/689 688/688
f 644/644 645/645 690/690 689/689
f 645/645 646/646 691/691 690/690
f 646/646 647/647 692/692 691/691
f 647/647 648/648 693/693 692/692
f 648/648 649/649 694/694 693/693
f 649/649 650/650 695/695 694/694
f 650/650 651/651 696/696 695/695
f 651/651 652/652 697/697 696/696
f 652/652 653/653 698/698 697/697
f 653/653 654/654 699/699 698/698
f 654/654 655/655 700/700 699/699
f 655/655 656/656 701/701 700/700
f 656/656 657/657 702/702 701/701
f 657/657 658/658 703/703 702/702
f 658/658 659/659 704/704 703/703
f 659/659 660/660 705/705 704/704
f 660/660 661/661 706/706 705/705
f 661/661 662/662 707/707 706/706
f 662/662 663/663 708/708 707/707
f 663/663 664/664 709/709 708/708
f 664/664 665/665 710/710 709/709
f 665/665 666/666 711/711 710/710
f 666/666 667/667 712/712 711/711
f 667/667 668/668 713/713 712/712
f 668/668 669/669 714/714 713/713
f 669/669 670/670 715/715 714/714
f 670/670 671/671 716/716 715/715
f 671/671 672/672 717/717 716/716
f 672/672 673/673 718/718 717/717
f 673/673 674/674 719/719 718/718
f 674/674 675/675 720/720 719/719
f 676/676 677/677 722/722 721/721
f 677/677 678/678 723/723 722/722
f 678/678 679/679 724/724 723/723
f 679/679 680/680 725/725 724/724
f 680/680 681/681 726/726 725/725
f 681/681 682/682 727/727 726/726
f 682/682 683/683 728/728 727/727
f 683/683 684/684 729/729 728/728
f 684/684 685/685 730/730 729/729
f 685/685 686/686 731/731 730/730
f 686/686 687/687 732/732 731/731
f 687/687 688/688 733/733 732/732
f 688/688 689/689 734/734 733/733
f 689/689 690/690 735/735 734/734
f 690/690 691/691 736/736 735/735
f 691/691 692/692 737/737 736/736
f 692/692 693/693 738/738 737/737
f 693/693 694/694 739/739 738/738
f 694/694 695/695 740/740 739/739
f 695/695 696/696 741/741 740/740
f 696/696 697/697 742/742 741/741
f 697/697 698/698 743/743 742/742
f 698/698 699/699 744/744 743/743
f 699/699 700/700 745/745 744/744
f 700/700 701/701 746/746 745/745
f 701/701 702/702 747/747 746/746
f 702/702 703/703 748/748 747/747
f 703/703 704/704 749/749 748/748
f 704/704 705/705 750/750 749/749
f 705/705 706/706 751/751 750/750
f 706/706 707/707 752/752 751/751
f 707/707 708/708 753/753 752/752
f 708/708 709/709 754/754 753/753
f 709/709 710/710 755/755 754/754
f 710/710 711/711 756/756 755/755
f 711/711 712/712 757/757 756/756
f 712/712 713/713 758/758 757/757
f 713/713 714/714 759/759 758/758
f 714/714 715/715 760/760 759/759
f 715/715 716/716 761/761 760/760
f 716/716 717/717 762/762 761/761
f 717/717 718/718 763/763 762/762
f 718/718 719/719 764/764 763/763
f 719/719 720/720 765/765 764/764
f 721/721 722/722 767/767 766/766
f 722/722 723/723 768/768 767/767
f 723/723 724/724 769/769 768/768
f 724/724 725/725 770/770 769/769
f 725/725 726/726 771/771 770/770
f 726/726 727/727 772/772 771/771
f 727/727 728/728 773/773 772/772
f 728/728 729/729 774/774 773/773
f 729/729 730/730 775/775 774/774
f 730/730 731/731 776/776 775/775
f 731/731 732/732 777/777 776/776
f 732/732 733/733 778/778 777/777
f 733/733 734/734 779/779 778/778
f 734/734 735/735 780/780 779/779
f 735/735 736/736 781/781 780/780
f 736/736 737/737 782/782 781/781
f 737/737 738/738 783/783 782/782
f 738/738 739/739 784/784 783/783
f 739/739 740/740 785/785 784/784
f 740/740 741/741 786/786 785/785
f 741/741 742/742 787/787 786/786
f 742/742 743/743 788/788 787/787
f 743/743 744/744 789/789 788/788
f 744/744 745/745 790/790 789/789
f 745/745 746/746 791/791 790/790
f 746/746 747/747 792/792 791/791
f 747/747 748/748 793/793 792/792
f 748/748 749/749 794/794 793/793
f 749/749 750/750 795/795 794/794
f 750/750 751/751 796/796 795/795
f 751/751 752/752 797/797 796/796
f 752/752 753/753 798/798 797/797
f 753/753 754/754 799/799 798/798
f 754/754 755/755 800/800 799/799
f 755/755 756/756 801/801 800/800
f 756/756 757/757 802/802 801/801
f 757/757 758/758 803/803 802/802
f 758/758 759/759 804/804 803/803
f 759/759 760/760 805/805 804/804
f 760/760 761/761 806/806 805/805
f 761/761 762/762 807/807 806/806
f 762/762 763/763 808/808 807/807
f 763/763 764/764 809/809 808/808
f 764/764 765/765 810/810 809/809
f 766/766 767/767 812/812 811/811
f 767/767 768/768 813/813 812/812
f 768/768 769/769 814/814 813/813
f 769/769 770/770 815/815 814/814
f 770/770 771/771 816/816 815/815
f 771/771 772/772 817/817 816/816
f 772/772 773/773 818/818 817/817
f 773/773 774/774 819/819 818/818
f 774/774 775/775 820/820 819/819
f 775/775 776/776 821/821 820/820
f 776/776 777/777 822/822 821/821
f 777/777 778/778 823/823 822/822
f 778/778 779/779 824/824 823/823
f 779/779 780/780 825/825 824/824
f 780/780 781/781 826/826 825/825
f 781/781 782/782 827/827 826/826
f 782/782 783/783 828/828 827/827
f 783/783 784/784 829/829 828/828
f 784/784 785/785 830/830 829/829
f 785/785 786/786 831/831 830/830
f 786/786 787/787 832/832 831/831
f 787/787 788/788 833/833 832/832
f 788/788 789/789 834/834 833/833
f 789/789 790/790 835/835 834/834
f 790/790 791/791 836/836 835/835
f 791/791 792/792 837/837 836/836
f 792/792 793/793 838/838 837/837
f 793/793 794/794 839/839 838/838
f 794/794 795/795 840/840 839/839
f 795/795 796/796 841/841 840/840
f 796/796 797/797 842/842 841/841
f 797/797 798/798 843/843 842/842
f 798/798 799/799 844/844 843/843
f 799/799 800/800 845/845 844/844
f 800/800 801/801 846/846 845/845
f 801/801 802/802 847/847 846/846
f 802/802 803/803 848/848 847/847
f 803/803 804/804 849/849 848/848
f 804/804 805/805 850/850 849/849
f 805/805 806/806 851/851 850/850
f 806/806 807/807 852/852 851/851
f 807/807 808/808 853/853 852/852
f 808/808 809/809 854/854 853/853
f 809/809 810/810 855/855 854/854
