o utility_cover_round
v 22.0000 0.0000 0.0000
v 21.7291 3.4416 0.0000
v 20.9232 6.7984 0.0000
v 19.6021 9.9878 0.0000
v 17.7984 12.9313 0.0000
v 15.5563 15.5563 0.0000
v 12.9313 17.7984 0.0000
v 9.9878 19.6021 0.0000
v 6.7984 20.9232 0.0000
v 3.4416 21.7291 0.0000
v 0.0000 22.0000 0.0000
v -3.4416 21.7291 0.0000
v -6.7984 20.9232 0.0000
v -9.9878 19.6021 0.0000
v -12.9313 17.7984 0.0000
v -15.5563 15.5563 0.0000
v -17.7984 12.9313 0.0000
v -19.6021 9.9878 0.0000
v -20.9232 6.7984 0.0000
v -21.7291 3.4416 0.0000
v -22.0000 0.0000 0.0000
v -21.7291 -3.4416 0.0000
v -20.9232 -6.7984 0.0000
v -19.6021 -9.9878 0.0000
v -17.7984 -12.9313 0.0000
v -15.5563 -15.5563 0.0000
v -12.9313 -17.7984 0.0000
v -9.9878 -19.6021 0.0000
v -6.7984 -20.9232 0.0000
v -3.4416 -21.7291 0.0000
v -0.0000 -22.0000 0.0000
v 3.4416 -21.7291 0.0000
v 6.7984 -20.9232 0.0000
v 9.9878 -19.6021 0.0000
v 12.9313 -17.7984 0.0000
v 15.5563 -15.5563 0.0000
v 17.7984 -12.9313 0.0000
v 19.6021 -9.9878 0.0000
v 20.9232 -6.7984 0.0000
v 21.7291 -3.4416 0.0000
v 22.0000 0.0000 2.0000
v 21.7291 3.4416 2.0000
v 20.9232 6.7984 2.0000
v 19.6021 9.9878 2.0000
v 17.7984 12.9313 2.0000
v 15.5563 15.5563 2.0000
v 12.9313 17.7984 2.0000
v 9.9878 19.6021 2.0000
v 6.7984 20.9232 2.0000
v 3.4416 21.7291 2.0000
v 0.0000 22.0000 2.0000
v -3.4416 21.7291 2.0000
v -6.7984 20.9232 2.0000
v -9.9878 19.6021 2.0000
v -12.9313 17.7984 2.0000
v -15.5563 15.5563 2.0000
v -17.7984 12.9313 2.0000
v -19.6021 9.9878 2.0000
v -20.9232 6.7984 2.0000
v -21.7291 3.4416 2.0000
v -22.0000 0.0000 2.0000
v -21.7291 -3.4416 2.0000
v -20.9232 -6.7984 2.0000
v -19.6021 -9.9878 2.0000
v -17.7984 -12.9313 2.0000
v -15.5563 -15.5563 2.0000
v -12.9313 -17.7984 2.0000
v -9.9878 -19.6021 2.0000
v -6.7984 -20.9232 2.0000
v -3.4416 -21.7291 2.0000
v -0.0000 -22.0000 2.0000
v 3.4416 -21.7291 2.0000
v 6.7984 -20.9232 2.0000
v 9.9878 -19.6021 2.0000
v 12.9313 -17.7984 2.0000
v 15.5563 -15.5563 2.0000
v 17.7984 -12.9313 2.0000
v 19.6021 -9.9878 2.0000
v 20.9232 -6.7984 2.0000
v 21.7291 -3.4416 2.0000
f 1 2 42 41
f 2 3 43 42
f 3 4 44 43
f 4 5 45 44
f 5 6 46 45
f 6 7 47 46
f 7 8 48 47
f 8 9 49 48
f 9 10 50 49
f 10 11 51 50
f 11 12 52 51
f 12 13 53 52
f 13 14 54 53
f 14 15 55 54
f 15 16 56 55
f 16 17 57 56
f 17 18 58 57
f 18 19 59 58
f 19 20 60 59
f 20 21 61 60
f 21 22 62 61
f 22 23 63 62
f 23 24 64 63
f 24 25 65 64
f 25 26 66 65
f 26 27 67 66
f 27 28 68 67
f 28 29 69 68
f 29 30 70 69
f 30 31 71 70
f 31 32 72 71
f 32 33 73 72
f 33 34 74 73
f 34 35 75 74
f 35 36 76 75
f 36 37 77 76
f 37 38 78 77
f 38 39 79 78
f 39 40 80 79
f 40 1 41 80
f 1 2 3 4 5 6 7 8 9 10 11 12 13 14 15 16 17 18 19 20 21 22 23 24 25 26 27 28 29 30 31 32 33 34 35 36 37 38 39 40
f 80 79 78 77 76 75 74 73 72 71 70 69 68 67 66 65 64 63 62 61 60 59 58 57 56 55 54 53 52 51 50 49 48 47 46 45 44 43 42 41
